<svg width="18" height="18" viewBox="0 0 18 18" fill="none" xmlns="http://www.w3.org/2000/svg">
<g opacity="0.36">
<rect width="18" height="18" rx="4" fill="#2E323D"/>
<path d="M12 6H7.1438C7.04434 6 6.94896 5.96049 6.87863 5.89016C6.80831 5.81984 6.7688 5.72446 6.7688 5.625C6.7688 5.52554 6.80831 5.43016 6.87863 5.35984C6.94896 5.28951 7.04434 5.25 7.1438 5.25H12.375C12.4745 5.25 12.5699 5.28951 12.6402 5.35984C12.7105 5.43016 12.75 5.52554 12.75 5.625V10.875C12.75 10.9745 12.7105 11.0698 12.6402 11.1402C12.5699 11.2105 12.4745 11.25 12.375 11.25C12.2756 11.25 12.1802 11.2105 12.1099 11.1402C12.0396 11.0698 12 10.9745 12 10.875V6Z" fill="white"/>
<path d="M12.1095 5.35949C12.1799 5.28907 12.2754 5.24951 12.375 5.24951C12.4746 5.24951 12.5701 5.28907 12.6405 5.35949C12.7109 5.4299 12.7505 5.5254 12.7505 5.62499C12.7505 5.72457 12.7109 5.82007 12.6405 5.89049L6.26549 12.2655C6.23062 12.3004 6.18923 12.328 6.14367 12.3469C6.09812 12.3657 6.04929 12.3755 5.99999 12.3755C5.95068 12.3755 5.90185 12.3657 5.8563 12.3469C5.81074 12.328 5.76935 12.3004 5.73449 12.2655C5.69962 12.2306 5.67196 12.1892 5.65309 12.1437C5.63422 12.0981 5.62451 12.0493 5.62451 12C5.62451 11.9507 5.63422 11.9019 5.65309 11.8563C5.67196 11.8107 5.69962 11.7694 5.73449 11.7345L12.1095 5.35949Z" fill="white"/>
</g>
</svg>
