<svg width="74" height="72" viewBox="0 0 74 72" fill="none" xmlns="http://www.w3.org/2000/svg">
<g clip-path="url(#clip0_441_904)">
<path d="M62.6382 29.3058V29.2239H12.7172V29.279C0.591977 30.0675 -9 40.1258 -9 52.4252C-9 64.7246 1.40901 75.6279 14.2507 75.6279C26.1324 75.6279 35.9268 66.7312 37.323 55.2499H37.6784C39.076 66.7312 48.869 75.6279 60.7507 75.6279C73.591 75.6279 84.0014 65.2404 84.0014 52.4252C84.0014 39.61 74.5963 30.2653 62.6382 29.3058Z" fill="#EBC69D"/>
<path d="M35.6139 46.917L17.6548 30.5833C17.1266 30.1028 17.4664 29.2239 18.1829 29.2239H54.1012C54.8162 29.2239 55.1575 30.1028 54.6293 30.5833L36.6702 46.917C36.3714 47.1883 35.9141 47.1883 35.6153 46.917H35.6139Z" fill="#EBC69D"/>
<path d="M64.4423 27.4533C72.039 27.4533 78.1973 21.3076 78.1973 13.7266C78.1973 6.14562 72.039 0 64.4423 0C56.8456 0 50.6873 6.14562 50.6873 13.7266C50.6873 21.3076 56.8456 27.4533 64.4423 27.4533Z" fill="#956B66"/>
<path d="M8.99879 27.4533C16.5955 27.4533 22.7538 21.3076 22.7538 13.7266C22.7538 6.14562 16.5955 0 8.99879 0C1.4021 0 -4.75623 6.14562 -4.75623 13.7266C-4.75623 21.3076 1.4021 27.4533 8.99879 27.4533Z" fill="#956B66"/>
<path d="M41.8768 77H32.0031C10.4062 77 -6.53478 61.5805 -4.60619 43.6811L-3.1024 29.7326C-1.4032 13.9626 14.4786 1.87939 33.5068 1.87939H40.3744C59.4026 1.87939 75.2845 13.9626 76.9837 29.734L78.4875 43.6825C80.4161 61.5819 63.4736 77.0014 41.8782 77.0014L41.8768 77Z" fill="#EBC69D"/>
<path d="M36.3922 39.8911C36.8803 32.82 31.1239 26.665 23.535 26.1434C15.9461 25.6218 9.39852 30.9311 8.9105 38.0022C8.42248 45.0732 14.1789 51.2283 21.7677 51.7499C29.3566 52.2715 35.9042 46.9621 36.3922 39.8911Z" fill="#956B66"/>
<path d="M65.275 39.8913C65.7631 32.8203 60.0067 26.6652 52.4178 26.1436C44.8289 25.622 38.2813 30.9314 37.7933 38.0024C37.3053 45.0735 43.0617 51.2285 50.6505 51.7501C58.2394 52.2717 64.787 46.9623 65.275 39.8913Z" fill="#956B66"/>
<path d="M50.5456 41.8539C54.3635 41.8539 57.4585 38.7653 57.4585 34.9553C57.4585 31.1453 54.3635 28.0566 50.5456 28.0566C46.7277 28.0566 43.6327 31.1453 43.6327 34.9553C43.6327 38.7653 46.7277 41.8539 50.5456 41.8539Z" fill="#09131C"/>
<path d="M50.5456 34.954C52.6539 34.954 54.3631 33.7209 54.3631 32.1999C54.3631 30.6788 52.6539 29.4458 50.5456 29.4458C48.4372 29.4458 46.728 30.6788 46.728 32.1999C46.728 33.7209 48.4372 34.954 50.5456 34.954Z" fill="white"/>
<path d="M50.5456 36.0364C48.137 36.0364 45.9677 36.8729 44.4497 38.2083C45.6151 40.3774 47.9076 41.8526 50.5456 41.8526C53.1836 41.8526 55.4761 40.3774 56.6415 38.2083C55.1235 36.8729 52.9542 36.0364 50.5456 36.0364Z" fill="#546186"/>
<path d="M50.5456 40.3011C51.2831 40.3011 51.8809 39.7045 51.8809 38.9685C51.8809 38.2326 51.2831 37.636 50.5456 37.636C49.8082 37.636 49.2103 38.2326 49.2103 38.9685C49.2103 39.7045 49.8082 40.3011 50.5456 40.3011Z" fill="white"/>
<path d="M23.2225 41.8539C27.0404 41.8539 30.1354 38.7653 30.1354 34.9553C30.1354 31.1453 27.0404 28.0566 23.2225 28.0566C19.4046 28.0566 16.3096 31.1453 16.3096 34.9553C16.3096 38.7653 19.4046 41.8539 23.2225 41.8539Z" fill="#09131C"/>
<path d="M23.2224 34.954C25.3308 34.954 27.04 33.7209 27.04 32.1999C27.04 30.6788 25.3308 29.4458 23.2224 29.4458C21.1141 29.4458 19.4049 30.6788 19.4049 32.1999C19.4049 33.7209 21.1141 34.954 23.2224 34.954Z" fill="white"/>
<path d="M23.2225 36.0364C20.8138 36.0364 18.6445 36.8729 17.1266 38.2083C18.292 40.3774 20.5845 41.8526 23.2225 41.8526C25.8605 41.8526 28.153 40.3774 29.3183 38.2083C27.8004 36.8729 25.6311 36.0364 23.2225 36.0364Z" fill="#546186"/>
<path d="M23.2225 40.3011C23.96 40.3011 24.5578 39.7045 24.5578 38.9685C24.5578 38.2326 23.96 37.636 23.2225 37.636C22.485 37.636 21.8872 38.2326 21.8872 38.9685C21.8872 39.7045 22.485 40.3011 23.2225 40.3011Z" fill="white"/>
<path d="M49.6677 22.3705C51.9551 22.3705 53.8095 21.4064 53.8095 20.217C53.8095 19.0276 51.9551 18.0635 49.6677 18.0635C47.3802 18.0635 45.5259 19.0276 45.5259 20.217C45.5259 21.4064 47.3802 22.3705 49.6677 22.3705Z" fill="#956B66"/>
<path d="M23.9418 22.3705C26.2293 22.3705 28.0836 21.4064 28.0836 20.217C28.0836 19.0276 26.2293 18.0635 23.9418 18.0635C21.6544 18.0635 19.8 19.0276 19.8 20.217C19.8 21.4064 21.6544 22.3705 23.9418 22.3705Z" fill="#956B66"/>
<path d="M43.4132 61.4901C43.4047 61.4604 43.3948 61.4308 43.382 61.4011L39.413 51.7795C39.1085 51.0432 38.0635 51.0432 37.7591 51.7795L33.79 61.4011C33.7773 61.4308 33.7674 61.4604 33.7589 61.4901C33.5097 62.0963 33.3723 62.7605 33.3723 63.4571C33.3723 66.3299 35.7059 68.6587 38.5846 68.6587C41.4633 68.6587 43.7969 66.3299 43.7969 63.4571C43.7969 62.7605 43.6596 62.0977 43.4103 61.4901H43.4132Z" fill="#81A3E3"/>
<path d="M45.2965 43.513V43.4875H29.6072V43.5045C25.7968 43.7518 22.7821 46.9128 22.7821 50.779C22.7821 54.6452 26.0531 58.0705 30.0887 58.0705C33.8226 58.0705 36.901 55.274 37.34 51.6664H37.4519C37.8908 55.2754 40.9692 58.0705 44.7032 58.0705C48.7388 58.0705 52.0097 54.8063 52.0097 50.779C52.0097 46.7518 49.0531 43.8154 45.2965 43.513Z" fill="white"/>
<path d="M36.0826 50.6447L33.1288 48.388C30.9793 46.746 32.1433 43.3179 34.8507 43.3179H40.7582C43.4656 43.3179 44.6296 46.746 42.4801 48.388L39.5263 50.6447C38.5111 51.4205 37.0993 51.4205 36.0826 50.6447Z" fill="#470723"/>
</g>
<defs>
<clipPath id="clip0_441_904">
<rect width="93" height="77" fill="white" transform="translate(-9)"/>
</clipPath>
</defs>
</svg>
