<svg width="54" height="54" viewBox="0 0 54 54" fill="none" xmlns="http://www.w3.org/2000/svg">
<g clip-path="url(#clip0_442_4009)">
<path d="M41.8261 22.1268V22.0789H13.3765V22.1111C6.4664 22.5719 1 28.4501 1 35.6381C1 42.826 6.93202 49.1981 14.2504 49.1981C21.0217 49.1981 26.6035 43.9987 27.3991 37.2889H27.6017C28.3982 43.9987 33.9791 49.1981 40.7504 49.1981C48.068 49.1981 54.0008 43.1275 54.0008 35.6381C54.0008 28.1487 48.6409 22.6875 41.8261 22.1268Z" fill="#EBC69D"/>
<path d="M26.4251 32.419L16.1903 22.8733C15.8893 22.5925 16.083 22.0789 16.4913 22.0789H36.9608C37.3684 22.0789 37.5628 22.5925 37.2618 22.8733L27.0271 32.419C26.8568 32.5776 26.5962 32.5776 26.4259 32.419H26.4251Z" fill="#EBC69D"/>
<path d="M42.8541 21.0441C47.1834 21.0441 50.693 17.4525 50.693 13.0221C50.693 8.5916 47.1834 5 42.8541 5C38.5248 5 35.0153 8.5916 35.0153 13.0221C35.0153 17.4525 38.5248 21.0441 42.8541 21.0441Z" fill="#956B66"/>
<path d="M11.2573 21.0441C15.5866 21.0441 19.0962 17.4525 19.0962 13.0221C19.0962 8.5916 15.5866 5 11.2573 5C6.92804 5 3.41846 8.5916 3.41846 13.0221C3.41846 17.4525 6.92804 21.0441 11.2573 21.0441Z" fill="#956B66"/>
<path d="M29.9944 50H24.3674C12.0595 50 2.40498 40.9886 3.50407 30.5279L4.36106 22.3762C5.32943 13.16 14.3804 6.09839 25.2244 6.09839H29.1382C39.9822 6.09839 49.0332 13.16 50.0015 22.377L50.8585 30.5288C51.9576 40.9895 42.3022 50.0009 29.9952 50.0009L29.9944 50Z" fill="#EBC69D"/>
<path d="M26.8687 28.3129C27.1468 24.1805 23.8663 20.5834 19.5415 20.2785C15.2166 19.9737 11.4852 23.0766 11.2071 27.209C10.929 31.3414 14.2095 34.9385 18.5343 35.2434C22.8592 35.5482 26.5906 32.4453 26.8687 28.3129Z" fill="#956B66"/>
<path d="M43.3288 28.3131C43.6069 24.1807 40.3264 20.5836 36.0016 20.2788C31.6767 19.9739 27.9453 23.0768 27.6672 27.2092C27.389 31.3417 30.6696 34.9388 34.9944 35.2436C39.3192 35.5484 43.0507 32.4456 43.3288 28.3131Z" fill="#956B66"/>
<path d="M34.9346 29.4601C37.1104 29.4601 38.8742 27.655 38.8742 25.4284C38.8742 23.2018 37.1104 21.3967 34.9346 21.3967C32.7588 21.3967 30.995 23.2018 30.995 25.4284C30.995 27.655 32.7588 29.4601 34.9346 29.4601Z" fill="#09131C"/>
<path d="M34.9346 25.4276C36.1362 25.4276 37.1102 24.7069 37.1102 23.818C37.1102 22.9291 36.1362 22.2085 34.9346 22.2085C33.7331 22.2085 32.759 22.9291 32.759 23.818C32.759 24.7069 33.7331 25.4276 34.9346 25.4276Z" fill="white"/>
<path d="M34.9346 26.0601C33.5619 26.0601 32.3256 26.5489 31.4606 27.3294C32.1247 28.597 33.4312 29.4592 34.9346 29.4592C36.4379 29.4592 37.7444 28.597 38.4086 27.3294C37.5435 26.5489 36.3072 26.0601 34.9346 26.0601Z" fill="#546186"/>
<path d="M34.9346 28.5524C35.3548 28.5524 35.6955 28.2037 35.6955 27.7736C35.6955 27.3435 35.3548 26.9949 34.9346 26.9949C34.5143 26.9949 34.1736 27.3435 34.1736 27.7736C34.1736 28.2037 34.5143 28.5524 34.9346 28.5524Z" fill="white"/>
<path d="M19.3633 29.4601C21.5391 29.4601 23.3029 27.655 23.3029 25.4284C23.3029 23.2018 21.5391 21.3967 19.3633 21.3967C17.1875 21.3967 15.4237 23.2018 15.4237 25.4284C15.4237 27.655 17.1875 29.4601 19.3633 29.4601Z" fill="#09131C"/>
<path d="M19.3633 25.4276C20.5649 25.4276 21.5389 24.7069 21.5389 23.818C21.5389 22.9291 20.5649 22.2085 19.3633 22.2085C18.1618 22.2085 17.1877 22.9291 17.1877 23.818C17.1877 24.7069 18.1618 25.4276 19.3633 25.4276Z" fill="white"/>
<path d="M19.3633 26.0601C17.9906 26.0601 16.7544 26.5489 15.8893 27.3294C16.5534 28.597 17.8599 29.4592 19.3633 29.4592C20.8667 29.4592 22.1731 28.597 22.8373 27.3294C21.9722 26.5489 20.7359 26.0601 19.3633 26.0601Z" fill="#546186"/>
<path d="M19.3633 28.5524C19.7835 28.5524 20.1242 28.2037 20.1242 27.7736C20.1242 27.3435 19.7835 26.9949 19.3633 26.9949C18.943 26.9949 18.6023 27.3435 18.6023 27.7736C18.6023 28.2037 18.943 28.5524 19.3633 28.5524Z" fill="white"/>
<path d="M34.4342 18.0735C35.7378 18.0735 36.7946 17.51 36.7946 16.815C36.7946 16.1199 35.7378 15.5564 34.4342 15.5564C33.1306 15.5564 32.0739 16.1199 32.0739 16.815C32.0739 17.51 33.1306 18.0735 34.4342 18.0735Z" fill="#956B66"/>
<path d="M19.7733 18.0735C21.0769 18.0735 22.1337 17.51 22.1337 16.815C22.1337 16.1199 21.0769 15.5564 19.7733 15.5564C18.4697 15.5564 17.413 16.1199 17.413 16.815C17.413 17.51 18.4697 18.0735 19.7733 18.0735Z" fill="#956B66"/>
<path d="M30.8699 40.9357C30.8651 40.9184 30.8594 40.9011 30.8522 40.8837L28.5902 35.2607C28.4167 34.8304 27.8212 34.8304 27.6477 35.2607L25.3858 40.8837C25.3785 40.9011 25.3728 40.9184 25.368 40.9357C25.226 41.29 25.1477 41.6782 25.1477 42.0853C25.1477 43.7642 26.4776 45.1252 28.1182 45.1252C29.7587 45.1252 31.0886 43.7642 31.0886 42.0853C31.0886 41.6782 31.0103 41.2908 30.8683 40.9357H30.8699Z" fill="#81A3E3"/>
<path d="M31.9432 30.4297V30.4148H23.002V30.4247C20.8305 30.5692 19.1124 32.4166 19.1124 34.676C19.1124 36.9355 20.9765 38.9373 23.2764 38.9373C25.4043 38.9373 27.1587 37.303 27.4089 35.1947H27.4726C27.7228 37.3038 29.4771 38.9373 31.6051 38.9373C33.9049 38.9373 35.769 37.0296 35.769 34.676C35.769 32.3224 34.0841 30.6064 31.9432 30.4297Z" fill="white"/>
<path d="M26.6923 34.5976L25.0089 33.2787C23.7839 32.3191 24.4473 30.3157 25.9902 30.3157H29.3569C30.8998 30.3157 31.5631 32.3191 30.3381 33.2787L28.6548 34.5976C28.0762 35.051 27.2717 35.051 26.6923 34.5976Z" fill="#470723"/>
</g>
<defs>
<clipPath id="clip0_442_4009">
<rect width="53" height="45" fill="white" transform="translate(1 5)"/>
</clipPath>
</defs>
</svg>
