<svg width="74" height="71" viewBox="0 0 74 71" fill="none" xmlns="http://www.w3.org/2000/svg">
<g clip-path="url(#clip0_441_951)">
<path d="M39.9977 83.9745H33.0261C8.67386 83.9745 -10.0256 66.5909 -6.56136 47.1737L-3.07482 27.6336C-0.246928 11.7751 16.6208 0 36.5112 0C56.4016 0 73.2693 11.7751 76.0987 27.6336L79.5852 47.1737C83.0495 66.5909 64.35 83.9745 39.9977 83.9745Z" fill="#9C9A96"/>
<path d="M31.2197 40.1301C31.2197 40.1301 36.6822 21.1673 23.6667 18.2341C10.6498 15.3008 -3.60857 30.621 -3.60857 30.621L-6.62825 47.5412C-9.7877 66.9584 7.59149 84.0001 29.8072 84.0001H36.1677C39.3108 84.0001 42.3498 83.6522 45.2446 82.9984L31.2197 40.1286V40.1301Z" fill="#C9C4BE"/>
<path d="M43.5362 40.1029C43.5362 40.1029 38.2804 21.1402 50.8022 18.2069C63.324 15.2736 76.0986 29.946 76.6086 30.4918L79.6357 47.1737C82.6762 66.5908 66.2649 83.9745 44.8952 83.9745H38.777C35.7529 83.9745 32.8298 83.6265 30.045 82.9727L43.5362 40.1029Z" fill="#C9C4BE"/>
<path d="M52.7544 39.521C56.7632 39.521 60.0129 36.2432 60.0129 32.1998C60.0129 28.1565 56.7632 24.8787 52.7544 24.8787C48.7456 24.8787 45.4958 28.1565 45.4958 32.1998C45.4958 36.2432 48.7456 39.521 52.7544 39.521Z" fill="#09131C"/>
<path d="M52.7544 32.1998C54.9682 32.1998 56.7628 30.8912 56.7628 29.277C56.7628 27.6628 54.9682 26.3542 52.7544 26.3542C50.5406 26.3542 48.746 27.6628 48.746 29.277C48.746 30.8912 50.5406 32.1998 52.7544 32.1998Z" fill="white"/>
<path d="M52.7544 33.3472C50.2254 33.3472 47.9476 34.2349 46.3538 35.6521C47.5774 37.954 49.9845 39.5196 52.7544 39.5196C55.5243 39.5196 57.9315 37.954 59.1551 35.6521C57.5612 34.2349 55.2835 33.3472 52.7544 33.3472Z" fill="#546186"/>
<path d="M52.7543 37.8744C53.5287 37.8744 54.1564 37.2413 54.1564 36.4603C54.1564 35.6793 53.5287 35.0461 52.7543 35.0461C51.98 35.0461 51.3523 35.6793 51.3523 36.4603C51.3523 37.2413 51.98 37.8744 52.7543 37.8744Z" fill="white"/>
<path d="M21.0916 39.521C25.1003 39.521 28.3501 36.2432 28.3501 32.1998C28.3501 28.1565 25.1003 24.8787 21.0916 24.8787C17.0828 24.8787 13.833 28.1565 13.833 32.1998C13.833 36.2432 17.0828 39.521 21.0916 39.521Z" fill="#09131C"/>
<path d="M21.0915 32.1998C23.3053 32.1998 25.0999 30.8912 25.0999 29.277C25.0999 27.6628 23.3053 26.3542 21.0915 26.3542C18.8778 26.3542 17.0831 27.6628 17.0831 29.277C17.0831 30.8912 18.8778 32.1998 21.0915 32.1998Z" fill="white"/>
<path d="M21.0916 33.3472C18.5625 33.3472 16.2848 34.2349 14.6909 35.6521C15.9146 37.954 18.3217 39.5196 21.0916 39.5196C23.8615 39.5196 26.2686 37.954 27.4923 35.6521C25.8984 34.2349 23.6206 33.3472 21.0916 33.3472Z" fill="#546186"/>
<path d="M21.0915 37.8744C21.8658 37.8744 22.4936 37.2413 22.4936 36.4603C22.4936 35.6793 21.8658 35.0461 21.0915 35.0461C20.3172 35.0461 19.6895 35.6793 19.6895 36.4603C19.6895 37.2413 20.3172 37.8744 21.0915 37.8744Z" fill="white"/>
<path d="M17.4727 69.4731C14.8797 68.1204 13.0034 64.8228 14.8054 62.1804C16.1123 60.2639 18.4198 61.3076 19.9111 62.3874C21.7235 63.6995 25.0331 66.3014 22.7821 68.7743C21.2878 70.4149 19.2182 70.3849 17.4742 69.4746L17.4727 69.4731Z" fill="#818080"/>
<path d="M21.0916 45.8044C22.1576 46.0099 67.2581 47.526 67.2581 47.526L32.7213 61.1726L21.0916 45.8044Z" fill="#C9C4BE"/>
<path d="M50.5644 60.6673C50.5555 60.6358 50.545 60.6043 50.5317 60.5728L46.3642 50.3619C46.0445 49.5806 44.9472 49.5806 44.6276 50.3619L40.4601 60.5728C40.4467 60.6043 40.4363 60.6358 40.4274 60.6673C40.1657 61.3106 40.0215 62.0154 40.0215 62.7548C40.0215 65.8035 42.4717 68.2749 45.4944 68.2749C48.517 68.2749 50.9673 65.8035 50.9673 62.7548C50.9673 62.0154 50.8231 61.3121 50.5614 60.6673H50.5644Z" fill="#81A3E3"/>
<path d="M43.1393 35.9189C40.6177 35.9189 38.3548 37.0362 36.8085 38.8057C35.2622 37.0362 32.9993 35.9189 30.4777 35.9189C25.8196 35.9189 22.0431 39.728 22.0431 44.4263C22.0431 49.1246 25.8196 52.9337 30.4777 52.9337C32.9993 52.9337 35.2622 51.8165 36.8085 50.0469C38.3548 51.8165 40.6177 52.9337 43.1393 52.9337C47.7974 52.9337 51.5739 49.1246 51.5739 44.4263C51.5739 39.728 47.7974 35.9189 43.1393 35.9189Z" fill="white"/>
<path d="M35.0006 44.4533L31.8991 42.0584C29.6421 40.3158 30.8643 36.6777 33.707 36.6777H39.91C42.7527 36.6777 43.9749 40.3158 41.7179 42.0584L38.6165 44.4533C37.5504 45.2766 36.0681 45.2766 35.0006 44.4533Z" fill="#09131C"/>
<path d="M5.14712 55.7802C5.14712 55.7802 5.07426 52.8994 6.75732 52.0881C8.44037 51.2768 10.7107 51.9411 10.565 54.9689C10.4193 57.9966 9.8335 60.2116 7.34312 59.6222C4.85273 59.0328 5.14712 55.7817 5.14712 55.7817V55.7802Z" fill="#818080"/>
<path d="M5.13672 66.6374C5.13672 66.6374 5.36717 63.9786 6.97738 64.052C8.58758 64.1255 8.36902 65.7511 9.68632 67.0798C11.0036 68.4084 10.2721 69.5901 8.95482 69.6651C7.63751 69.7401 5.19916 69.4432 5.13672 66.6374Z" fill="#818080"/>
</g>
<defs>
<clipPath id="clip0_441_951">
<rect width="87" height="84" fill="white" transform="translate(-7)"/>
</clipPath>
</defs>
</svg>
