<svg width="54" height="54" viewBox="0 0 54 54" fill="none" xmlns="http://www.w3.org/2000/svg">
<g clip-path="url(#clip0_442_3945)">
<path d="M28.47 50.9854H24.5434C10.8278 50.9854 0.295917 41.0519 2.24704 29.9564L4.21072 18.7906C5.80344 9.7286 15.3037 3 26.5063 3C37.7089 3 47.2091 9.7286 48.8027 18.7906L50.7664 29.9564C52.7175 41.0519 42.1856 50.9854 28.47 50.9854Z" fill="#9C9A96"/>
<path d="M23.526 25.9313C23.526 25.9313 26.6026 15.0955 19.2721 13.4193C11.9407 11.7432 3.91013 20.4976 3.91013 20.4976L2.20939 30.1663C0.429932 41.2618 10.2182 50.9999 22.7305 50.9999H26.3129C28.0831 50.9999 29.7948 50.8011 31.4252 50.4275L23.526 25.9305V25.9313Z" fill="#C9C4BE"/>
<path d="M30.463 25.916C30.463 25.916 27.5028 15.0801 34.5553 13.4039C41.6078 11.7278 48.8027 20.112 49.0899 20.4239L50.7949 29.9564C52.5073 41.0519 43.2642 50.9854 31.2284 50.9854H27.7825C26.0793 50.9854 24.4329 50.7866 22.8645 50.413L30.463 25.916Z" fill="#C9C4BE"/>
<path d="M35.6548 25.5836C37.9126 25.5836 39.7429 23.7106 39.7429 21.4001C39.7429 19.0896 37.9126 17.2166 35.6548 17.2166C33.397 17.2166 31.5667 19.0896 31.5667 21.4001C31.5667 23.7106 33.397 25.5836 35.6548 25.5836Z" fill="#09131C"/>
<path d="M35.6548 21.4001C36.9017 21.4001 37.9124 20.6524 37.9124 19.73C37.9124 18.8076 36.9017 18.0598 35.6548 18.0598C34.408 18.0598 33.3972 18.8076 33.3972 19.73C33.3972 20.6524 34.408 21.4001 35.6548 21.4001Z" fill="white"/>
<path d="M35.6548 22.0557C34.2304 22.0557 32.9475 22.563 32.0498 23.3728C32.739 24.6881 34.0947 25.5828 35.6548 25.5828C37.2148 25.5828 38.5706 24.6881 39.2598 23.3728C38.3621 22.563 37.0792 22.0557 35.6548 22.0557Z" fill="#546186"/>
<path d="M35.6548 24.6428C36.0909 24.6428 36.4444 24.281 36.4444 23.8347C36.4444 23.3884 36.0909 23.0266 35.6548 23.0266C35.2187 23.0266 34.8651 23.3884 34.8651 23.8347C34.8651 24.281 35.2187 24.6428 35.6548 24.6428Z" fill="white"/>
<path d="M17.8217 25.5836C20.0795 25.5836 21.9098 23.7106 21.9098 21.4001C21.9098 19.0896 20.0795 17.2166 17.8217 17.2166C15.5638 17.2166 13.7335 19.0896 13.7335 21.4001C13.7335 23.7106 15.5638 25.5836 17.8217 25.5836Z" fill="#09131C"/>
<path d="M17.8217 21.4001C19.0685 21.4001 20.0793 20.6524 20.0793 19.73C20.0793 18.8076 19.0685 18.0598 17.8217 18.0598C16.5749 18.0598 15.5641 18.8076 15.5641 19.73C15.5641 20.6524 16.5749 21.4001 17.8217 21.4001Z" fill="white"/>
<path d="M17.8216 22.0557C16.3972 22.0557 15.1144 22.563 14.2167 23.3728C14.9058 24.6881 16.2616 25.5828 17.8216 25.5828C19.3817 25.5828 20.7374 24.6881 21.4266 23.3728C20.5289 22.563 19.2461 22.0557 17.8216 22.0557Z" fill="#546186"/>
<path d="M17.8216 24.6428C18.2578 24.6428 18.6113 24.281 18.6113 23.8347C18.6113 23.3884 18.2578 23.0266 17.8216 23.0266C17.3855 23.0266 17.032 23.3884 17.032 23.8347C17.032 24.281 17.3855 24.6428 17.8216 24.6428Z" fill="white"/>
<path d="M15.7834 42.6988C14.323 41.9259 13.2662 40.0415 14.2811 38.5316C15.0172 37.4364 16.3168 38.0329 17.1567 38.6499C18.1775 39.3997 20.0416 40.8864 18.7737 42.2995C17.9322 43.237 16.7665 43.2199 15.7843 42.6997L15.7834 42.6988Z" fill="#818080"/>
<path d="M17.8217 29.1741C18.4221 29.2915 43.8235 30.1578 43.8235 30.1578L24.3717 37.9559L17.8217 29.1741Z" fill="#C9C4BE"/>
<path d="M34.4213 37.667C34.4163 37.649 34.4105 37.631 34.4029 37.613L32.0557 31.7782C31.8757 31.3317 31.2577 31.3317 31.0776 31.7782L28.7304 37.613C28.7229 37.631 28.717 37.649 28.712 37.667C28.5646 38.0346 28.4834 38.4374 28.4834 38.8599C28.4834 40.602 29.8634 42.0142 31.5658 42.0142C33.2683 42.0142 34.6483 40.602 34.6483 38.8599C34.6483 38.4374 34.5671 38.0355 34.4197 37.667H34.4213Z" fill="#81A3E3"/>
<path d="M30.2394 23.5251C28.8192 23.5251 27.5447 24.1636 26.6738 25.1747C25.8029 24.1636 24.5284 23.5251 23.1082 23.5251C20.4846 23.5251 18.3577 25.7017 18.3577 28.3865C18.3577 31.0713 20.4846 33.2479 23.1082 33.2479C24.5284 33.2479 25.8029 32.6094 26.6738 31.5983C27.5447 32.6094 28.8192 33.2479 30.2394 33.2479C32.863 33.2479 34.9899 31.0713 34.9899 28.3865C34.9899 25.7017 32.863 23.5251 30.2394 23.5251Z" fill="white"/>
<path d="M25.6555 28.4019L23.9087 27.0334C22.6376 26.0376 23.3259 23.9587 24.927 23.9587H28.4206C30.0217 23.9587 30.71 26.0376 29.4389 27.0334L27.6921 28.4019C27.0917 28.8724 26.2568 28.8724 25.6555 28.4019Z" fill="#09131C"/>
<path d="M24.1829 45.3921C24.3353 44.9503 24.0017 44.427 23.4378 44.2234C22.8739 44.0197 22.2933 44.2128 22.1409 44.6546C21.9885 45.0964 22.3221 45.6197 22.886 45.8234C23.4499 46.027 24.0306 45.834 24.1829 45.3921Z" fill="#818080"/>
<path d="M8.84151 34.8743C8.84151 34.8743 8.80048 33.2281 9.74841 32.7645C10.6963 32.3009 11.975 32.6805 11.893 34.4107C11.8109 36.1408 11.481 37.4065 10.0783 37.0697C8.67571 36.7329 8.84151 34.8751 8.84151 34.8751V34.8743Z" fill="#818080"/>
<path d="M8.83557 41.0785C8.83557 41.0785 8.96537 39.5592 9.87226 39.6012C10.7792 39.6432 10.6561 40.5721 11.398 41.3313C12.1399 42.0906 11.7279 42.7658 10.986 42.8087C10.2441 42.8515 8.87074 42.6819 8.83557 41.0785Z" fill="#818080"/>
</g>
<defs>
<clipPath id="clip0_442_3945">
<rect width="49" height="48" fill="white" transform="translate(2 3)"/>
</clipPath>
</defs>
</svg>
