<svg width="54" height="54" viewBox="0 0 54 54" fill="none" xmlns="http://www.w3.org/2000/svg">
<g clip-path="url(#clip0_442_3905)">
<path d="M28.9233 51H25.0758C11.6367 51 1.31683 41.0641 3.22867 29.9649L5.15282 18.7959C6.71377 9.73088 16.0223 3 27 3C37.9768 3 47.2862 9.73002 48.8472 18.7959L50.7713 29.9649C52.6832 41.0641 42.3633 51 28.9241 51H28.9233Z" fill="#FFC84D"/>
<path d="M27 32C31.9706 32 36 30.8807 36 29.5C36 28.1193 31.9706 27 27 27C22.0294 27 18 28.1193 18 29.5C18 30.8807 22.0294 32 27 32Z" fill="#D17914"/>
<path d="M34.7423 36.4763C34.7366 36.4576 34.73 36.4389 34.7214 36.4201L32.0562 30.3484C31.8518 29.8839 31.1501 29.8839 30.9457 30.3484L28.2805 36.4201C28.2719 36.4389 28.2653 36.4576 28.2596 36.4763C28.0922 36.8589 28 37.278 28 37.7176C28 39.5304 29.567 41 31.5 41C33.433 41 35 39.5304 35 37.7176C35 37.278 34.9078 36.8598 34.7404 36.4763H34.7423Z" fill="#81A3E3"/>
<path d="M34.0395 24.0082C36.4345 24.0082 38.376 22.1046 38.376 19.7563C38.376 17.408 36.4345 15.5044 34.0395 15.5044C31.6445 15.5044 29.703 17.408 29.703 19.7563C29.703 22.1046 31.6445 24.0082 34.0395 24.0082Z" fill="#09131C"/>
<path d="M34.0394 19.7563C35.362 19.7563 36.4341 18.9963 36.4341 18.0588C36.4341 17.1213 35.362 16.3613 34.0394 16.3613C32.7168 16.3613 31.6447 17.1213 31.6447 18.0588C31.6447 18.9963 32.7168 19.7563 34.0394 19.7563Z" fill="white"/>
<path d="M34.0393 20.4224C32.5284 20.4224 31.1675 20.938 30.2153 21.761C30.9464 23.0979 32.3845 24.0071 34.0393 24.0071C35.6941 24.0071 37.1322 23.0979 37.8633 21.761C36.911 20.938 35.5502 20.4224 34.0393 20.4224Z" fill="#546186"/>
<path d="M34.0394 23.052C34.502 23.052 34.877 22.6843 34.877 22.2307C34.877 21.7771 34.502 21.4094 34.0394 21.4094C33.5768 21.4094 33.2018 21.7771 33.2018 22.2307C33.2018 22.6843 33.5768 23.052 34.0394 23.052Z" fill="white"/>
<path d="M20.4527 24.0082C22.8477 24.0082 24.7892 22.1046 24.7892 19.7563C24.7892 17.408 22.8477 15.5044 20.4527 15.5044C18.0577 15.5044 16.1162 17.408 16.1162 19.7563C16.1162 22.1046 18.0577 24.0082 20.4527 24.0082Z" fill="#09131C"/>
<path d="M20.4529 19.7563C21.7754 19.7563 22.8476 18.9963 22.8476 18.0588C22.8476 17.1213 21.7754 16.3613 20.4529 16.3613C19.1303 16.3613 18.0581 17.1213 18.0581 18.0588C18.0581 18.9963 19.1303 19.7563 20.4529 19.7563Z" fill="white"/>
<path d="M20.4527 20.4224C18.9418 20.4224 17.581 20.938 16.6288 21.761C17.3598 23.0979 18.7979 24.0071 20.4527 24.0071C22.1076 24.0071 23.5457 23.0979 24.2767 21.761C23.3245 20.938 21.9637 20.4224 20.4527 20.4224Z" fill="#546186"/>
<path d="M20.4527 23.052C20.9154 23.052 21.2904 22.6843 21.2904 22.2307C21.2904 21.7771 20.9154 21.4094 20.4527 21.4094C19.9901 21.4094 19.6151 21.7771 19.6151 22.2307C19.6151 22.6843 19.9901 23.052 20.4527 23.052Z" fill="white"/>
<path d="M27 31C34.1797 31 40 29.2091 40 27C40 24.7909 34.1797 23 27 23C19.8203 23 14 24.7909 14 27C14 29.2091 19.8203 31 27 31Z" fill="#FF8800"/>
</g>
<defs>
<clipPath id="clip0_442_3905">
<rect width="54" height="54" fill="white"/>
</clipPath>
</defs>
</svg>
