<svg width="74" height="74" viewBox="0 0 74 74" fill="none" xmlns="http://www.w3.org/2000/svg">
<g clip-path="url(#clip0_441_1180)">
<path d="M40.0225 81.7079H33.9774C12.8617 81.7079 -3.35299 66.0966 -0.349087 48.6577L2.67416 31.109C5.12674 16.8661 19.7524 6.29053 37.0007 6.29053C54.2475 6.29053 68.8746 16.8647 71.3272 31.109L74.3504 48.6577C77.3543 66.0966 61.1396 81.7079 40.0239 81.7079H40.0225Z" fill="#FFC84D"/>
<path d="M37.0007 53.1285C44.6257 53.1285 50.807 51.1984 50.807 48.8176C50.807 46.4367 44.6257 44.5066 37.0007 44.5066C29.3756 44.5066 23.1943 46.4367 23.1943 48.8176C23.1943 51.1984 29.3756 53.1285 37.0007 53.1285Z" fill="#D17914"/>
<path d="M48.2851 58.5041C48.2772 58.4767 48.2681 58.4492 48.2563 58.4217L44.586 49.5113C44.3045 48.8296 43.3381 48.8296 43.0566 49.5113L39.3863 58.4217C39.3745 58.4492 39.3653 58.4767 39.3575 58.5041C39.127 59.0655 39 59.6806 39 60.3257C39 62.9861 41.1579 65.1427 43.82 65.1427C46.482 65.1427 48.6399 62.9861 48.6399 60.3257C48.6399 59.6806 48.5129 59.0668 48.2825 58.5041H48.2851Z" fill="#81A3E3"/>
<path d="M47.951 39.3464C51.6765 39.3464 54.6966 36.3851 54.6966 32.7323C54.6966 29.0794 51.6765 26.1182 47.951 26.1182C44.2255 26.1182 41.2053 29.0794 41.2053 32.7323C41.2053 36.3851 44.2255 39.3464 47.951 39.3464Z" fill="#09131C"/>
<path d="M47.951 32.7322C50.0083 32.7322 51.6762 31.55 51.6762 30.0917C51.6762 28.6334 50.0083 27.4512 47.951 27.4512C45.8936 27.4512 44.2258 28.6334 44.2258 30.0917C44.2258 31.55 45.8936 32.7322 47.951 32.7322Z" fill="white"/>
<path d="M47.9509 33.7688C45.6006 33.7688 43.4838 34.5708 42.0026 35.8511C43.1397 37.9307 45.3768 39.3451 47.9509 39.3451C50.5251 39.3451 52.7622 37.9307 53.8993 35.8511C52.4181 34.5708 50.3013 33.7688 47.9509 33.7688Z" fill="#546186"/>
<path d="M47.9509 37.8589C48.6705 37.8589 49.2539 37.2869 49.2539 36.5813C49.2539 35.8757 48.6705 35.3037 47.9509 35.3037C47.2313 35.3037 46.6479 35.8757 46.6479 36.5813C46.6479 37.2869 47.2313 37.8589 47.9509 37.8589Z" fill="white"/>
<path d="M26.816 39.3464C30.5415 39.3464 33.5616 36.3851 33.5616 32.7323C33.5616 29.0794 30.5415 26.1182 26.816 26.1182C23.0904 26.1182 20.0703 29.0794 20.0703 32.7323C20.0703 36.3851 23.0904 39.3464 26.816 39.3464Z" fill="#09131C"/>
<path d="M26.816 32.7322C28.8733 32.7322 30.5412 31.55 30.5412 30.0917C30.5412 28.6334 28.8733 27.4512 26.816 27.4512C24.7586 27.4512 23.0908 28.6334 23.0908 30.0917C23.0908 31.55 24.7586 32.7322 26.816 32.7322Z" fill="white"/>
<path d="M26.8159 33.7688C24.4656 33.7688 22.3488 34.5708 20.8676 35.8511C22.0047 37.9307 24.2418 39.3451 26.8159 39.3451C29.3901 39.3451 31.6271 37.9307 32.7643 35.8511C31.2831 34.5708 29.1663 33.7688 26.8159 33.7688Z" fill="#546186"/>
<path d="M26.8159 37.8589C27.5355 37.8589 28.1189 37.2869 28.1189 36.5813C28.1189 35.8757 27.5355 35.3037 26.8159 35.3037C26.0963 35.3037 25.5129 35.8757 25.5129 36.5813C25.5129 37.2869 26.0963 37.8589 26.8159 37.8589Z" fill="white"/>
<path d="M37.0007 50.4529C48.4153 50.4529 57.6687 47.5638 57.6687 44C57.6687 40.4362 48.4153 37.5471 37.0007 37.5471C25.586 37.5471 16.3326 40.4362 16.3326 44C16.3326 47.5638 25.586 50.4529 37.0007 50.4529Z" fill="#FF8800"/>
</g>
<defs>
<clipPath id="clip0_441_1180">
<rect width="84" height="84" fill="white" transform="translate(-5 2)"/>
</clipPath>
</defs>
</svg>
