<svg width="54" height="54" viewBox="0 0 54 54" fill="none" xmlns="http://www.w3.org/2000/svg">
<g clip-path="url(#clip0_441_1070)">
<path d="M28.844 52.9999H25.1569C12.2777 52.9999 2.38782 43.3892 4.22 32.6535L6.06397 21.8501C7.56073 13.0818 16.4814 6.57129 27.0009 6.57129C37.5203 6.57129 46.4419 13.081 47.9378 21.8501L49.7817 32.6535C51.6139 43.3892 41.724 52.9999 28.8449 52.9999H28.844Z" fill="#8BA0AE"/>
<path d="M20.6565 29.7861C22.9526 29.7861 24.8139 27.3186 24.8139 24.2748C24.8139 21.2309 22.9526 18.7634 20.6565 18.7634C18.3605 18.7634 16.4991 21.2309 16.4991 24.2748C16.4991 27.3186 18.3605 29.7861 20.6565 29.7861Z" fill="#718084"/>
<path d="M33.6352 29.7861C35.9312 29.7861 37.7925 27.3186 37.7925 24.2748C37.7925 21.2309 35.9312 18.7634 33.6352 18.7634C31.3391 18.7634 29.4778 21.2309 29.4778 24.2748C29.4778 27.3186 31.3391 29.7861 33.6352 29.7861Z" fill="#718084"/>
<path d="M31.6428 12.4306L25.2917 5.87007C24.6664 5.24287 23.7992 4.85254 22.8384 4.85254C20.9354 4.85254 19.3923 6.37967 19.3923 8.26294V13.4874C19.3923 15.3706 20.9354 16.8978 22.8384 16.8978C24.7414 16.8978 26.2845 15.3706 26.2845 13.4874V12.4298H31.6445L31.6428 12.4306Z" fill="#8BA0AE"/>
<path d="M37.2632 9.57727L30.9121 3.01753C30.2867 2.39033 29.4195 2 28.4588 2C26.5558 2 25.0127 3.52713 25.0127 5.4104V10.6348C25.0127 12.5181 26.5558 14.0452 28.4588 14.0452C30.3617 14.0452 31.9049 12.5181 31.9049 10.6348V9.57727H37.2649H37.2632Z" fill="#8BA0AE"/>
<path d="M33.679 26.9204C35.9513 26.9204 37.7934 25.0974 37.7934 22.8486C37.7934 20.5999 35.9513 18.7769 33.679 18.7769C31.4067 18.7769 29.5646 20.5999 29.5646 22.8486C29.5646 25.0974 31.4067 26.9204 33.679 26.9204Z" fill="#09131C"/>
<path d="M33.679 22.8488C34.9338 22.8488 35.9511 22.121 35.9511 21.2232C35.9511 20.3254 34.9338 19.5977 33.679 19.5977C32.4241 19.5977 31.4069 20.3254 31.4069 21.2232C31.4069 22.121 32.4241 22.8488 33.679 22.8488Z" fill="white"/>
<path d="M33.679 23.4875C32.2455 23.4875 30.9544 23.9813 30.0509 24.7695C30.7445 26.0497 32.1089 26.9205 33.679 26.9205C35.2491 26.9205 36.6135 26.0497 37.3071 24.7695C36.4037 23.9813 35.1126 23.4875 33.679 23.4875Z" fill="#546186"/>
<path d="M33.679 26.0046C34.1179 26.0046 34.4737 25.6525 34.4737 25.2181C34.4737 24.7838 34.1179 24.4316 33.679 24.4316C33.2401 24.4316 32.8843 24.7838 32.8843 25.2181C32.8843 25.6525 33.2401 26.0046 33.679 26.0046Z" fill="white"/>
<path d="M20.788 26.9204C23.0603 26.9204 24.9024 25.0974 24.9024 22.8486C24.9024 20.5999 23.0603 18.7769 20.788 18.7769C18.5157 18.7769 16.6736 20.5999 16.6736 22.8486C16.6736 25.0974 18.5157 26.9204 20.788 26.9204Z" fill="#09131C"/>
<path d="M20.788 22.8488C22.0428 22.8488 23.0601 22.121 23.0601 21.2232C23.0601 20.3254 22.0428 19.5977 20.788 19.5977C19.5331 19.5977 18.5159 20.3254 18.5159 21.2232C18.5159 22.121 19.5331 22.8488 20.788 22.8488Z" fill="white"/>
<path d="M20.788 23.4875C19.3545 23.4875 18.0634 23.9813 17.1599 24.7695C17.8535 26.0497 19.218 26.9205 20.788 26.9205C22.3581 26.9205 23.7226 26.0497 24.4162 24.7695C23.5127 23.9813 22.2216 23.4875 20.788 23.4875Z" fill="#546186"/>
<path d="M20.788 26.0046C21.2269 26.0046 21.5827 25.6525 21.5827 25.2181C21.5827 24.7838 21.2269 24.4316 20.788 24.4316C20.3491 24.4316 19.9933 24.7838 19.9933 25.2181C19.9933 25.6525 20.3491 26.0046 20.788 26.0046Z" fill="white"/>
<path d="M27 47.1016C17.7969 47.1016 9.5614 42.9997 4.05896 36.5417C4.86128 45.6044 13.8578 52.9999 25.156 52.9999H28.8431C40.1404 52.9999 49.137 45.6044 49.9401 36.5417C44.4377 42.9989 36.203 47.1016 26.9991 47.1016H27Z" fill="#5A6A72"/>
<path d="M32.4368 40.0347C32.4317 40.0172 32.4258 39.9997 32.4182 39.9822L30.0559 34.3032C29.8747 33.8687 29.2528 33.8687 29.0716 34.3032L26.7093 39.9822C26.7017 39.9997 26.6958 40.0172 26.6908 40.0347C26.5424 40.3925 26.4607 40.7845 26.4607 41.1957C26.4607 42.8913 27.8496 44.2658 29.5629 44.2658C31.2763 44.2658 32.6652 42.8913 32.6652 41.1957C32.6652 40.7845 32.5834 40.3934 32.4351 40.0347H32.4368Z" fill="#C0D5F7"/>
<path d="M27 39.8923C25.9465 39.8923 24.9934 39.2759 24.5703 38.3209L21.9012 32.2975C21.1326 30.5627 22.417 28.6177 24.331 28.6177H29.669C31.583 28.6177 32.8674 30.5627 32.0988 32.2975L29.4297 38.3209C29.0066 39.2759 28.0535 39.8923 27 39.8923Z" fill="#5A6A72"/>
<path d="M29.5224 24.5708C28.5169 24.5708 27.6152 25.0078 26.9999 25.6993C26.3839 25.007 25.4821 24.5708 24.4775 24.5708C22.6209 24.5708 21.1166 26.0604 21.1166 27.897C21.1166 29.7335 22.6218 31.2231 24.4775 31.2231C25.483 31.2231 26.3847 30.7861 26.9999 30.0947C27.616 30.7869 28.5178 31.2231 29.5224 31.2231C31.379 31.2231 32.8833 29.7335 32.8833 27.897C32.8833 26.0604 31.3781 24.5708 29.5224 24.5708Z" fill="white"/>
</g>
<defs>
<clipPath id="clip0_441_1070">
<rect width="46" height="51" fill="white" transform="translate(4 2)"/>
</clipPath>
</defs>
</svg>
