<svg width="74" height="74" viewBox="0 0 74 74" fill="none" xmlns="http://www.w3.org/2000/svg">
<g clip-path="url(#clip0_441_764)">
<path d="M40.1488 87.5382H33.8524C11.8587 87.5382 -5.03021 71.1262 -1.90141 52.7927L1.24754 34.344C3.80354 19.3704 19.0374 8.25244 37.0013 8.25244C54.9653 8.25244 70.2005 19.369 72.7551 34.344L75.904 52.7927C79.0328 71.1262 62.144 87.5382 40.1503 87.5382H40.1488Z" fill="#8BA0AE"/>
<path d="M26.1671 47.8961C30.0881 47.8961 33.2667 43.6824 33.2667 38.4844C33.2667 33.2865 30.0881 29.0728 26.1671 29.0728C22.2462 29.0728 19.0676 33.2865 19.0676 38.4844C19.0676 43.6824 22.2462 47.8961 26.1671 47.8961Z" fill="#718084"/>
<path d="M48.3307 47.8961C52.2517 47.8961 55.4302 43.6824 55.4302 38.4844C55.4302 33.2865 52.2517 29.0728 48.3307 29.0728C44.4098 29.0728 41.2312 33.2865 41.2312 38.4844C41.2312 43.6824 44.4098 47.8961 48.3307 47.8961Z" fill="#718084"/>
<path d="M44.9285 18.2582L34.0828 7.05477C33.0149 5.98371 31.5339 5.31714 29.8933 5.31714C26.6436 5.31714 24.0084 7.92501 24.0084 11.141V20.0628C24.0084 23.2788 26.6436 25.8867 29.8933 25.8867C33.143 25.8867 35.7781 23.2788 35.7781 20.0628V18.2568H44.9314L44.9285 18.2582Z" fill="#8BA0AE"/>
<path d="M54.5264 13.3857L43.6806 2.18368C42.6128 1.11261 41.1318 0.446045 39.4912 0.446045C36.2415 0.446045 33.6063 3.05391 33.6063 6.26995V15.1917C33.6063 18.4077 36.2415 21.0156 39.4912 21.0156C42.7409 21.0156 45.376 18.4077 45.376 15.1917V13.3857H54.5293H54.5264Z" fill="#8BA0AE"/>
<path d="M48.4055 43.0022C52.2859 43.0022 55.4316 39.8891 55.4316 36.0488C55.4316 32.2086 52.2859 29.0955 48.4055 29.0955C44.5251 29.0955 41.3794 32.2086 41.3794 36.0488C41.3794 39.8891 44.5251 43.0022 48.4055 43.0022Z" fill="#09131C"/>
<path d="M48.4056 36.0489C50.5485 36.0489 52.2856 34.8061 52.2856 33.273C52.2856 31.7399 50.5485 30.4971 48.4056 30.4971C46.2627 30.4971 44.5255 31.7399 44.5255 33.273C44.5255 34.8061 46.2627 36.0489 48.4056 36.0489Z" fill="white"/>
<path d="M48.4056 37.1399C45.9575 37.1399 43.7527 37.9831 42.2098 39.329C43.3943 41.5153 45.7243 43.0023 48.4056 43.0023C51.0868 43.0023 53.4168 41.5153 54.6013 39.329C53.0584 37.9831 50.8536 37.1399 48.4056 37.1399Z" fill="#546186"/>
<path d="M48.4055 41.4384C49.155 41.4384 49.7626 40.8371 49.7626 40.0953C49.7626 39.3535 49.155 38.7522 48.4055 38.7522C47.656 38.7522 47.0483 39.3535 47.0483 40.0953C47.0483 40.8371 47.656 41.4384 48.4055 41.4384Z" fill="white"/>
<path d="M26.3917 43.0022C30.2721 43.0022 33.4178 39.8891 33.4178 36.0488C33.4178 32.2086 30.2721 29.0955 26.3917 29.0955C22.5113 29.0955 19.3656 32.2086 19.3656 36.0488C19.3656 39.8891 22.5113 43.0022 26.3917 43.0022Z" fill="#09131C"/>
<path d="M26.3918 36.0489C28.5347 36.0489 30.2718 34.8061 30.2718 33.273C30.2718 31.7399 28.5347 30.4971 26.3918 30.4971C24.2489 30.4971 22.5117 31.7399 22.5117 33.273C22.5117 34.8061 24.2489 36.0489 26.3918 36.0489Z" fill="white"/>
<path d="M26.3918 37.1399C23.9437 37.1399 21.7389 37.9831 20.196 39.329C21.3805 41.5153 23.7105 43.0023 26.3918 43.0023C29.073 43.0023 31.403 41.5153 32.5875 39.329C31.0447 37.9831 28.8398 37.1399 26.3918 37.1399Z" fill="#546186"/>
<path d="M26.3917 41.4384C27.1412 41.4384 27.7489 40.8371 27.7489 40.0953C27.7489 39.3535 27.1412 38.7522 26.3917 38.7522C25.6422 38.7522 25.0345 39.3535 25.0345 40.0953C25.0345 40.8371 25.6422 41.4384 26.3917 41.4384Z" fill="white"/>
<path d="M36.9999 77.4658C21.284 77.4658 7.2202 70.4611 -2.17627 59.4329C-0.806161 74.9092 14.5572 87.5383 33.851 87.5383H40.1474C59.4398 87.5383 74.8031 74.9092 76.1747 59.4329C66.7782 70.4597 52.7159 77.4658 36.9985 77.4658H36.9999Z" fill="#5A6A72"/>
<path d="M46.2842 65.3977C46.2755 65.3678 46.2654 65.3379 46.2525 65.308L42.2184 55.61C41.909 54.868 40.8469 54.868 40.5375 55.61L36.5034 65.308C36.4905 65.3379 36.4804 65.3678 36.4718 65.3977C36.2185 66.0087 36.0789 66.6781 36.0789 67.3803C36.0789 70.2759 38.4506 72.6231 41.3765 72.6231C44.3024 72.6231 46.6742 70.2759 46.6742 67.3803C46.6742 66.6781 46.5346 66.0102 46.2813 65.3977H46.2842Z" fill="#C0D5F7"/>
<path d="M37 65.1541C35.201 65.1541 33.5733 64.1016 32.8508 62.4708L28.2929 52.1846C26.9804 49.2221 29.1737 45.9006 32.4421 45.9006H41.5579C44.8263 45.9006 47.0196 49.2221 45.7071 52.1846L41.1492 62.4708C40.4267 64.1016 38.799 65.1541 37 65.1541Z" fill="#5A6A72"/>
<path d="M41.3075 38.99C39.5905 38.99 38.0506 39.7363 37 40.9171C35.9479 39.7349 34.408 38.99 32.6925 38.99C29.522 38.99 26.953 41.5338 26.953 44.67C26.953 47.8063 29.5234 50.3501 32.6925 50.3501C34.4094 50.3501 35.9494 49.6038 37 48.423C38.052 49.6052 39.592 50.3501 41.3075 50.3501C44.478 50.3501 47.047 47.8063 47.047 44.67C47.047 41.5338 44.4766 38.99 41.3075 38.99Z" fill="white"/>
</g>
<defs>
<clipPath id="clip0_441_764">
<rect width="78.5538" height="87.0923" fill="white" transform="translate(-2.27698 0.446045)"/>
</clipPath>
</defs>
</svg>
