<svg width="74" height="71" viewBox="0 0 74 71" fill="none" xmlns="http://www.w3.org/2000/svg">
<g clip-path="url(#clip0_441_999)">
<path d="M63.0663 31.428C70.2094 31.428 76 25.6807 76 18.591C76 11.5012 70.2094 5.75391 63.0663 5.75391C55.9233 5.75391 50.1327 11.5012 50.1327 18.591C50.1327 25.6807 55.9233 31.428 63.0663 31.428Z" fill="#E7D7C8"/>
<path d="M10.9336 31.428C18.0767 31.428 23.8673 25.6807 23.8673 18.591C23.8673 11.5012 18.0767 5.75391 10.9336 5.75391C3.79059 5.75391 -2 11.5012 -2 18.591C-2 25.6807 3.79059 31.428 10.9336 31.428Z" fill="#E7D7C8"/>
<path d="M10.6674 26.9493C15.539 26.9493 19.4882 23.0296 19.4882 18.1944C19.4882 13.3592 15.539 9.43945 10.6674 9.43945C5.79577 9.43945 1.84656 13.3592 1.84656 18.1944C1.84656 23.0296 5.79577 26.9493 10.6674 26.9493Z" fill="#D4B7B4"/>
<path d="M63.0663 26.9493C67.9379 26.9493 71.8871 23.0296 71.8871 18.1944C71.8871 13.3592 67.9379 9.43945 63.0663 9.43945C58.1947 9.43945 54.2455 13.3592 54.2455 18.1944C54.2455 23.0296 58.1947 26.9493 63.0663 26.9493Z" fill="#D4B7B4"/>
<path d="M40.1216 74H33.8785C12.0708 74 -4.67481 57.3597 -1.57255 40.2489L1.54969 24.3513C4.08209 10.3764 19.1873 0 36.9994 0C54.8115 0 69.9167 10.3764 72.4504 24.3513L75.5727 40.2489C78.6749 57.3597 61.9293 74 40.1216 74Z" fill="#E7D7C8"/>
<path d="M25.6155 24.9578C25.6155 24.9578 14.5206 22.3491 9.26535 34.6655C4.01014 46.9819 13.6445 56.4425 18.0249 55.9866C22.4054 55.5307 22.1125 49.2562 27.0761 46.9594C32.0397 44.6627 44.8868 43.6041 50.142 49.2046L39.1936 29.6835C39.1936 29.6835 34.3764 29.739 31.8946 28.0012C29.4128 26.2634 27.6526 25.1824 25.6168 24.9578H25.6155Z" fill="#B29C85"/>
<path d="M48.1741 24.9578C48.1741 24.9578 59.269 22.3491 64.5243 34.6655C69.7795 46.9819 60.1451 56.4425 55.7647 55.9866C51.3856 55.5307 51.6771 49.2562 46.7135 46.9594C41.7499 44.664 28.9028 43.6041 23.6476 49.2046L34.596 29.6835C34.596 29.6835 39.4132 29.739 41.895 28.0012C44.3768 26.2621 46.137 25.1824 48.1728 24.9578H48.1741Z" fill="#B29C85"/>
<path d="M47.2488 62.2777C47.2408 62.2499 47.2315 62.2221 47.2195 62.1944L43.4874 53.1963C43.2012 52.5078 42.2186 52.5078 41.9323 53.1963L38.2003 62.1944C38.1883 62.2221 38.179 62.2499 38.171 62.2777C37.9366 62.8446 37.8075 63.4657 37.8075 64.1172C37.8075 66.8038 40.0017 68.9816 42.7085 68.9816C45.4154 68.9816 47.6096 66.8038 47.6096 64.1172C47.6096 63.4657 47.4804 62.8459 47.2461 62.2777H47.2488Z" fill="#81A3E3"/>
<path d="M42.935 43.5056C40.6768 43.5056 38.6504 44.4901 37.2657 46.0495C35.881 44.4901 33.8545 43.5056 31.5964 43.5056C27.425 43.5056 24.0431 46.8622 24.0431 51.0025C24.0431 55.1427 27.425 58.4993 31.5964 58.4993C33.8545 58.4993 35.881 57.5148 37.2657 55.9555C38.6504 57.5148 40.6768 58.4993 42.935 58.4993C47.1064 58.4993 50.4882 55.1427 50.4882 51.0025C50.4882 46.8622 47.1064 43.5056 42.935 43.5056Z" fill="white"/>
<path d="M35.648 51.0263L32.8706 48.9159C30.8494 47.3803 31.9439 44.1743 34.4896 44.1743H40.0444C42.5901 44.1743 43.6846 47.3803 41.6634 48.9159L38.886 51.0263C37.9314 51.7518 36.6039 51.7518 35.648 51.0263Z" fill="#D4B7B4"/>
<path d="M43.333 19.0072C45.3608 18.7297 52.2151 13.1715 56.955 6.23496C50.7531 2.22553 45.5139 0.11377 36.9913 0.11377C19.1793 0.11377 4.07402 10.4889 1.54028 24.465L0.650879 29.3678C0.674845 29.4193 0.689491 29.4471 0.689491 29.4471C0.689491 29.4471 2.3538 32.7508 5.68241 27.0605C9.01102 21.3701 14.189 13.4781 23.9898 16.9655C33.7905 20.453 37.9699 19.7407 43.333 19.0059V19.0072Z" fill="#D0B9A4"/>
<path d="M33.3765 18.2143C31.3487 17.9368 24.4945 12.1143 19.7545 5.17776C25.9577 1.16833 28.5327 0.11377 37.0566 0.11377C54.8687 0.11377 69.9739 10.4902 72.5077 24.465L73.3971 29.3678C73.3731 29.4193 73.3585 29.4471 73.3585 29.4471C73.3585 29.4471 71.6942 32.7508 68.3655 27.0605C65.0369 21.3701 59.8589 13.4781 50.0582 16.9655C40.2574 20.453 38.7409 18.9478 33.3779 18.213L33.3765 18.2143Z" fill="#D0B9A4"/>
<path d="M54.3414 45.3987C57.9313 45.3987 60.8415 42.5103 60.8415 38.9472C60.8415 35.3841 57.9313 32.4956 54.3414 32.4956C50.7515 32.4956 47.8413 35.3841 47.8413 38.9472C47.8413 42.5103 50.7515 45.3987 54.3414 45.3987Z" fill="#09131C"/>
<path d="M54.3414 38.9471C56.3239 38.9471 57.931 37.794 57.931 36.3715C57.931 34.949 56.3239 33.7959 54.3414 33.7959C52.3589 33.7959 50.7518 34.949 50.7518 36.3715C50.7518 37.794 52.3589 38.9471 54.3414 38.9471Z" fill="white"/>
<path d="M54.3414 39.958C52.0766 39.958 50.0368 40.7403 48.6095 41.9892C49.7053 44.0177 51.8609 45.3973 54.3414 45.3973C56.8218 45.3973 58.9775 44.0177 60.0732 41.9892C58.6459 40.7403 56.6062 39.958 54.3414 39.958Z" fill="#546186"/>
<path d="M54.3414 43.9477C55.0348 43.9477 55.5969 43.3897 55.5969 42.7015C55.5969 42.0133 55.0348 41.4553 54.3414 41.4553C53.6479 41.4553 53.0858 42.0133 53.0858 42.7015C53.0858 43.3897 53.6479 43.9477 54.3414 43.9477Z" fill="white"/>
<path d="M19.1966 45.3987C22.7866 45.3987 25.6968 42.5103 25.6968 38.9472C25.6968 35.3841 22.7866 32.4956 19.1966 32.4956C15.6067 32.4956 12.6965 35.3841 12.6965 38.9472C12.6965 42.5103 15.6067 45.3987 19.1966 45.3987Z" fill="#09131C"/>
<path d="M19.1966 38.9471C21.1791 38.9471 22.7862 37.794 22.7862 36.3715C22.7862 34.949 21.1791 33.7959 19.1966 33.7959C17.2142 33.7959 15.6071 34.949 15.6071 36.3715C15.6071 37.794 17.2142 38.9471 19.1966 38.9471Z" fill="white"/>
<path d="M19.1966 39.958C16.9318 39.958 14.892 40.7403 13.4647 41.9892C14.5605 44.0177 16.7161 45.3973 19.1966 45.3973C21.6771 45.3973 23.8327 44.0177 24.9285 41.9892C23.5011 40.7403 21.4614 39.958 19.1966 39.958Z" fill="#546186"/>
<path d="M19.1966 43.9477C19.89 43.9477 20.4521 43.3897 20.4521 42.7015C20.4521 42.0133 19.89 41.4553 19.1966 41.4553C18.5032 41.4553 17.941 42.0133 17.941 42.7015C17.941 43.3897 18.5032 43.9477 19.1966 43.9477Z" fill="white"/>
</g>
<defs>
<clipPath id="clip0_441_999">
<rect width="78" height="74" fill="white" transform="translate(-2)"/>
</clipPath>
</defs>
</svg>
