<svg width="54" height="54" viewBox="0 0 54 54" fill="none" xmlns="http://www.w3.org/2000/svg">
<g clip-path="url(#clip0_442_4059)">
<path d="M43.0408 23.5362C47.4366 23.5362 51 19.9636 51 15.5564C51 11.1493 47.4366 7.57666 43.0408 7.57666C38.6451 7.57666 35.0817 11.1493 35.0817 15.5564C35.0817 19.9636 38.6451 23.5362 43.0408 23.5362Z" fill="#E7D7C8"/>
<path d="M10.9592 23.5362C15.3549 23.5362 18.9183 19.9636 18.9183 15.5564C18.9183 11.1493 15.3549 7.57666 10.9592 7.57666C6.56344 7.57666 3 11.1493 3 15.5564C3 19.9636 6.56344 23.5362 10.9592 23.5362Z" fill="#E7D7C8"/>
<path d="M10.7953 20.7522C13.7932 20.7522 16.2235 18.3156 16.2235 15.3099C16.2235 12.3043 13.7932 9.86768 10.7953 9.86768C7.79735 9.86768 5.36707 12.3043 5.36707 15.3099C5.36707 18.3156 7.79735 20.7522 10.7953 20.7522Z" fill="#D4B7B4"/>
<path d="M43.0409 20.7522C46.0388 20.7522 48.4691 18.3156 48.4691 15.3099C48.4691 12.3043 46.0388 9.86768 43.0409 9.86768C40.043 9.86768 37.6127 12.3043 37.6127 15.3099C37.6127 18.3156 40.043 20.7522 43.0409 20.7522Z" fill="#D4B7B4"/>
<path d="M28.921 50H25.079C11.6589 50 1.35392 39.656 3.26301 29.0196L5.18438 19.1373C6.74279 10.4502 16.0383 4 26.9996 4C37.9609 4 47.2564 10.4502 48.8156 19.1373L50.737 29.0196C52.6461 39.656 42.3411 50 28.921 50Z" fill="#E7D7C8"/>
<path d="M19.9942 19.5144C19.9942 19.5144 13.1665 17.8928 9.93255 25.549C6.69858 33.2051 12.6274 39.086 15.3231 38.8026C18.0187 38.5192 17.8385 34.6188 20.893 33.1911C23.9475 31.7634 31.8535 31.1054 35.0874 34.5868L28.3499 22.452C28.3499 22.452 25.3855 22.4865 23.8582 21.4063C22.331 20.326 21.2478 19.6541 19.995 19.5144H19.9942Z" fill="#B29C85"/>
<path d="M33.8765 19.5144C33.8765 19.5144 40.7041 17.8928 43.9381 25.549C47.1721 33.2051 41.2432 39.086 38.5476 38.8026C35.8527 38.5192 36.0322 34.6188 32.9776 33.1911C29.9231 31.7642 22.0172 31.1054 18.7832 34.5868L25.5207 22.452C25.5207 22.452 28.4851 22.4865 30.0124 21.4063C31.5397 20.3252 32.6228 19.6541 33.8756 19.5144H33.8765Z" fill="#B29C85"/>
<path d="M33.307 42.7132C33.302 42.696 33.2963 42.6787 33.2889 42.6615L30.9923 37.0681C30.8161 36.6401 30.2115 36.6401 30.0353 37.0681L27.7387 42.6615C27.7313 42.6787 27.7255 42.696 27.7206 42.7132C27.5764 43.0656 27.4969 43.4517 27.4969 43.8567C27.4969 45.5268 28.8472 46.8806 30.513 46.8806C32.1787 46.8806 33.529 45.5268 33.529 43.8567C33.529 43.4517 33.4495 43.0665 33.3053 42.7132H33.307Z" fill="#81A3E3"/>
<path d="M30.6523 31.0439C29.2626 31.0439 28.0156 31.6559 27.1635 32.6253C26.3113 31.6559 25.0643 31.0439 23.6747 31.0439C21.1076 31.0439 19.0265 33.1305 19.0265 35.7042C19.0265 38.2778 21.1076 40.3644 23.6747 40.3644C25.0643 40.3644 26.3113 39.7524 27.1635 38.783C28.0156 39.7524 29.2626 40.3644 30.6523 40.3644C33.2193 40.3644 35.3004 38.2778 35.3004 35.7042C35.3004 33.1305 33.2193 31.0439 30.6523 31.0439Z" fill="white"/>
<path d="M26.168 35.7191L24.4589 34.4072C23.2151 33.4526 23.8886 31.4597 25.4552 31.4597H28.8735C30.4401 31.4597 31.1136 33.4526 29.8699 34.4072L28.1607 35.7191C27.5732 36.17 26.7563 36.17 26.168 35.7191Z" fill="#D4B7B4"/>
<path d="M30.8973 15.8152C32.1451 15.6426 36.3631 12.1875 39.28 7.87562C35.4635 5.38327 32.2394 4.07056 26.9947 4.07056C16.0334 4.07056 6.7379 10.5199 5.17867 19.2078L4.63135 22.2555C4.6461 22.2875 4.65511 22.3048 4.65511 22.3048C4.65511 22.3048 5.6793 24.3585 7.72767 20.8212C9.77605 17.2839 12.9625 12.3781 18.9937 14.546C25.025 16.7138 27.5969 16.2711 30.8973 15.8143V15.8152Z" fill="#D0B9A4"/>
<path d="M24.7701 15.3223C23.5222 15.1498 19.3042 11.5303 16.3873 7.21844C20.2047 4.72609 21.7893 4.07056 27.0348 4.07056C37.9961 4.07056 47.2916 10.5208 48.8508 19.2078L49.3981 22.2555C49.3834 22.2875 49.3744 22.3048 49.3744 22.3048C49.3744 22.3048 48.3502 24.3585 46.3018 20.8212C44.2534 17.2839 41.067 12.3781 35.0357 14.546C29.0045 16.7138 28.0713 15.7782 24.7709 15.3214L24.7701 15.3223Z" fill="#D0B9A4"/>
<path d="M37.6716 32.2208C39.8808 32.2208 41.6716 30.4253 41.6716 28.2104C41.6716 25.9955 39.8808 24.2 37.6716 24.2C35.4624 24.2 33.6715 25.9955 33.6715 28.2104C33.6715 30.4253 35.4624 32.2208 37.6716 32.2208Z" fill="#09131C"/>
<path d="M37.6716 28.2104C38.8916 28.2104 39.8806 27.4936 39.8806 26.6094C39.8806 25.7251 38.8916 25.0083 37.6716 25.0083C36.4516 25.0083 35.4626 25.7251 35.4626 26.6094C35.4626 27.4936 36.4516 28.2104 37.6716 28.2104Z" fill="white"/>
<path d="M37.6716 28.8389C36.2779 28.8389 35.0226 29.3252 34.1443 30.1015C34.8186 31.3624 36.1451 32.22 37.6716 32.22C39.198 32.22 40.5246 31.3624 41.1989 30.1015C40.3205 29.3252 39.0653 28.8389 37.6716 28.8389Z" fill="#546186"/>
<path d="M37.6716 31.3188C38.0983 31.3188 38.4442 30.972 38.4442 30.5442C38.4442 30.1164 38.0983 29.7695 37.6716 29.7695C37.2449 29.7695 36.8989 30.1164 36.8989 30.5442C36.8989 30.972 37.2449 31.3188 37.6716 31.3188Z" fill="white"/>
<path d="M16.044 32.2208C18.2532 32.2208 20.0441 30.4253 20.0441 28.2104C20.0441 25.9955 18.2532 24.2 16.044 24.2C13.8348 24.2 12.0439 25.9955 12.0439 28.2104C12.0439 30.4253 13.8348 32.2208 16.044 32.2208Z" fill="#09131C"/>
<path d="M16.0441 28.2104C17.264 28.2104 18.253 27.4936 18.253 26.6094C18.253 25.7251 17.264 25.0083 16.0441 25.0083C14.8241 25.0083 13.8351 25.7251 13.8351 26.6094C13.8351 27.4936 14.8241 28.2104 16.0441 28.2104Z" fill="white"/>
<path d="M16.044 28.8389C14.6503 28.8389 13.3951 29.3252 12.5167 30.1015C13.191 31.3624 14.5176 32.22 16.044 32.22C17.5705 32.22 18.897 31.3624 19.5713 30.1015C18.693 29.3252 17.4377 28.8389 16.044 28.8389Z" fill="#546186"/>
<path d="M16.044 31.3188C16.4707 31.3188 16.8167 30.972 16.8167 30.5442C16.8167 30.1164 16.4707 29.7695 16.044 29.7695C15.6173 29.7695 15.2714 30.1164 15.2714 30.5442C15.2714 30.972 15.6173 31.3188 16.044 31.3188Z" fill="white"/>
</g>
<defs>
<clipPath id="clip0_442_4059">
<rect width="48" height="46" fill="white" transform="translate(3 4)"/>
</clipPath>
</defs>
</svg>
