<svg width="54" height="54" viewBox="0 0 54 54" fill="none" xmlns="http://www.w3.org/2000/svg">
<g clip-path="url(#clip0_442_3786)">
<path d="M25.6541 51.9999H29.3507C42.2632 51.9999 52.1785 41.915 50.3416 31.545L48.4929 21.9102C46.9926 13.4399 38.0487 7.1521 27.502 7.1521C16.9553 7.1521 8.01132 13.4407 6.51107 21.9102L4.66237 31.545C2.82549 41.915 12.7407 51.9999 25.6533 51.9999H25.6541Z" fill="url(#paint0_linear_442_3786)"/>
<path d="M10.3685 25.2764C12.0098 19.3153 22.7315 19.2304 27.3971 19.4851C32.0634 19.2304 42.7843 19.3153 44.4257 25.2764C44.4257 25.2764 36.4419 36.2343 28.3817 37.3187C28.079 37.3788 27.7518 37.4068 27.3971 37.3996C27.0423 37.406 26.7151 37.378 26.4124 37.3187C18.3522 36.2343 10.3685 25.2764 10.3685 25.2764Z" fill="#513D31"/>
<path d="M7.07026 39.0361C5.82408 37.3196 6.18346 34.9019 7.87294 33.636C9.56242 32.3702 11.9422 32.7355 13.1884 34.452L13.6652 35.1088C14.9114 36.8254 14.552 39.2431 12.8626 40.5089C11.1731 41.7748 8.79327 41.4094 7.54709 39.6929L7.07026 39.0361Z" fill="#513D31"/>
<path d="M47.0249 40.3501C45.7788 42.0666 43.3989 42.4319 41.7095 41.1661C40.02 39.9002 39.6606 37.4825 40.9068 35.766L41.3836 35.1092C42.6298 33.3927 45.0096 33.0273 46.6991 34.2932C48.3886 35.5591 48.7479 37.9768 47.5018 39.6933L47.0249 40.3501Z" fill="#513D31"/>
<mask id="mask0_442_3786" style="mask-type:luminance" maskUnits="userSpaceOnUse" x="19" y="-18" width="47" height="58">
<path d="M50.6309 39.1953C50.6309 39.1953 52.0586 21.2247 27.6005 25.0578C3.14241 28.8909 39.124 -18 39.124 -18L66 36.5491L50.6309 39.1961V39.1953Z" fill="white"/>
</mask>
<g mask="url(#mask0_442_3786)">
<path d="M25.6903 51.9999H29.3869C42.2995 51.9999 52.2147 41.915 50.3778 31.545L48.5291 21.9102C47.0289 13.4399 38.0849 7.1521 27.5382 7.1521C16.9915 7.1521 8.04758 13.4407 6.54733 21.9102L4.69862 31.545C2.86174 41.915 12.777 51.9999 25.6895 51.9999H25.6903Z" fill="#7F5B52"/>
</g>
<mask id="mask1_442_3786" style="mask-type:luminance" maskUnits="userSpaceOnUse" x="-11" y="-18" width="47" height="58">
<path d="M4.3691 39.1953C4.3691 39.1953 2.94138 21.2247 27.3995 25.0578C51.8568 28.8917 15.8768 -18 15.8768 -18L-10.9992 36.5491L4.36989 39.1961L4.3691 39.1953Z" fill="white"/>
</mask>
<g mask="url(#mask1_442_3786)">
<path d="M29.3105 51.9999H25.6138C12.7013 51.9999 2.78606 41.915 4.62294 31.545L6.47164 21.9102C7.97189 13.4399 16.9159 7.1521 27.4625 7.1521C38.0092 7.1521 46.9532 13.4407 48.4534 21.9102L50.3021 31.545C52.139 41.915 42.2238 51.9999 29.3112 51.9999H29.3105Z" fill="#7F5B52"/>
</g>
<path d="M24.4013 12.1834L30.3424 5.88359C30.9274 5.28131 31.7386 4.90649 32.6374 4.90649C34.4175 4.90649 35.861 6.37294 35.861 8.18136V13.1982C35.861 15.0066 34.4175 16.473 32.6374 16.473C30.8572 16.473 29.4137 15.0066 29.4137 13.1982V12.1826H24.3998L24.4013 12.1834Z" fill="#7F5B52"/>
<path d="M19.1429 9.44345L25.084 3.1436C25.669 2.54132 26.4802 2.1665 27.3789 2.1665C29.159 2.1665 30.6025 3.63295 30.6025 5.44137V10.4582C30.6025 12.2666 29.159 13.7331 27.3789 13.7331C25.5988 13.7331 24.1553 12.2666 24.1553 10.4582V9.44265H19.1413L19.1429 9.44345Z" fill="#7F5B52"/>
<path d="M20.3413 20.1452C19.0677 20.1452 18.0353 19.5988 18.0353 18.9247C18.0353 18.2506 19.0677 17.7041 20.3413 17.7041C21.6148 17.7041 22.6472 18.2506 22.6472 18.9247C22.6472 19.5988 21.6148 20.1452 20.3413 20.1452Z" fill="#514037"/>
<path d="M34.6643 20.1452C33.3907 20.1452 32.3583 19.5988 32.3583 18.9247C32.3583 18.2506 33.3907 17.7041 34.6643 17.7041C35.9378 17.7041 36.9702 18.2506 36.9702 18.9247C36.9702 19.5988 35.9378 20.1452 34.6643 20.1452Z" fill="#514037"/>
<path d="M23.3591 37.1561C23.3638 37.1392 23.3693 37.1224 23.3764 37.1056L25.5862 31.6523C25.7557 31.235 26.3375 31.235 26.507 31.6523L28.7168 37.1056C28.7239 37.1224 28.7294 37.1392 28.7341 37.1561C28.8729 37.4997 28.9493 37.8761 28.9493 38.2709C28.9493 39.8991 27.6501 41.219 26.0474 41.219C24.4446 41.219 23.1454 39.8991 23.1454 38.2709C23.1454 37.8761 23.2219 37.5005 23.3607 37.1561H23.3591Z" fill="#81A3E3"/>
<path d="M27.3451 34.6085C28.3306 34.6085 29.2222 34.0166 29.618 33.0996L32.1147 27.3155C32.8337 25.6497 31.6322 23.782 29.8419 23.782H24.8484C23.058 23.782 21.8565 25.6497 22.5755 27.3155L25.0723 33.0996C25.468 34.0166 26.3597 34.6085 27.3451 34.6085Z" fill="#FCE199"/>
<g opacity="0.37">
<mask id="mask2_442_3786" style="mask-type:luminance" maskUnits="userSpaceOnUse" x="20" y="28" width="14" height="14">
<path d="M27.26 41.5412C23.7946 41.5412 20.9854 38.6873 20.9854 35.1668C20.9854 31.6464 23.7946 28.7925 27.26 28.7925C30.7253 28.7925 33.5345 31.6464 33.5345 35.1668C33.5345 38.6873 30.7253 41.5412 27.26 41.5412Z" fill="white"/>
</mask>
<g mask="url(#mask2_442_3786)">
<path d="M27.3207 34.6085C28.3062 34.6085 29.1978 34.0166 29.5935 33.0996L32.0903 27.3155C32.8093 25.6497 31.6078 23.782 29.8174 23.782H24.824C23.0336 23.782 21.8321 25.6497 22.5511 27.3155L25.0479 33.0996C25.4436 34.0166 26.3352 34.6085 27.3207 34.6085Z" fill="#513D31"/>
</g>
</g>
<path d="M17.2344 29.1952C15.1087 29.1952 13.3856 27.4446 13.3856 25.2852C13.3856 23.1258 15.1087 21.3752 17.2344 21.3752C19.36 21.3752 21.0831 23.1258 21.0831 25.2852C21.0831 27.4446 19.36 29.1952 17.2344 29.1952Z" fill="#09131C"/>
<path d="M17.2343 25.2852C16.0605 25.2852 15.1089 24.5864 15.1089 23.7243C15.1089 22.8622 16.0605 22.1633 17.2343 22.1633C18.4082 22.1633 19.3597 22.8622 19.3597 23.7243C19.3597 24.5864 18.4082 25.2852 17.2343 25.2852Z" fill="white"/>
<path d="M17.2344 25.8979C18.5754 25.8979 19.7832 26.3721 20.6283 27.1289C19.9795 28.3583 18.7031 29.1944 17.2344 29.1944C15.7657 29.1944 14.4893 28.3583 13.8405 27.1289C14.6856 26.3721 15.8934 25.8979 17.2344 25.8979Z" fill="#546186"/>
<path d="M17.2344 28.3159C16.8238 28.3159 16.4909 27.9778 16.4909 27.5607C16.4909 27.1436 16.8238 26.8054 17.2344 26.8054C17.6449 26.8054 17.9778 27.1436 17.9778 27.5607C17.9778 27.9778 17.6449 28.3159 17.2344 28.3159Z" fill="white"/>
<path d="M38.0439 29.1952C35.9183 29.1952 34.1951 27.4446 34.1951 25.2852C34.1951 23.1258 35.9183 21.3752 38.0439 21.3752C40.1695 21.3752 41.8927 23.1258 41.8927 25.2852C41.8927 27.4446 40.1695 29.1952 38.0439 29.1952Z" fill="#09131C"/>
<path d="M38.0439 25.2852C36.8701 25.2852 35.9185 24.5864 35.9185 23.7243C35.9185 22.8622 36.8701 22.1633 38.0439 22.1633C39.2177 22.1633 40.1693 22.8622 40.1693 23.7243C40.1693 24.5864 39.2177 25.2852 38.0439 25.2852Z" fill="white"/>
<path d="M38.044 25.8979C39.385 25.8979 40.5927 26.3721 41.4379 27.1289C40.789 28.3583 39.5127 29.1944 38.044 29.1944C36.5753 29.1944 35.2989 28.3583 34.6501 27.1289C35.4952 26.3721 36.703 25.8979 38.044 25.8979Z" fill="#546186"/>
<path d="M38.0439 28.3159C37.6333 28.3159 37.3005 27.9778 37.3005 27.5607C37.3005 27.1436 37.6333 26.8054 38.0439 26.8054C38.4545 26.8054 38.7874 27.1436 38.7874 27.5607C38.7874 27.9778 38.4545 28.3159 38.0439 28.3159Z" fill="white"/>
</g>
<defs>
<linearGradient id="paint0_linear_442_3786" x1="43.0075" y1="12.0568" x2="2.74151" y2="58.2983" gradientUnits="userSpaceOnUse">
<stop stop-color="#E7D7C8"/>
<stop offset="1" stop-color="#E7D7C8"/>
</linearGradient>
<clipPath id="clip0_442_3786">
<rect width="54" height="54" fill="white"/>
</clipPath>
</defs>
</svg>
