<svg width="74" height="74" viewBox="0 0 74 74" fill="none" xmlns="http://www.w3.org/2000/svg">
<g clip-path="url(#clip0_441_1119)">
<path d="M39.6884 87.0001H33.3034C10.9998 87.0001 -6.12643 69.8558 -2.95364 52.2267L0.239581 35.8476C2.83092 21.4481 18.2796 10.7588 36.4966 10.7588C54.7136 10.7588 70.1623 21.4495 72.7536 35.8476L75.9468 52.2267C79.1196 69.8558 61.9933 87.0001 39.6898 87.0001H39.6884Z" fill="url(#paint0_linear_441_1119)"/>
<path d="M66.0907 41.57C63.2556 31.4362 44.7363 31.2918 36.6777 31.7248C28.6177 31.2918 10.0997 31.4362 7.26465 41.57C7.26465 41.57 21.0547 60.1984 34.9769 62.0419C35.4998 62.144 36.0649 62.1916 36.6777 62.1794C37.2904 62.1903 37.8556 62.1426 38.3785 62.0419C52.3006 60.1984 66.0907 41.57 66.0907 41.57Z" fill="#513D31"/>
<path d="M71.7877 64.9616C73.9402 62.0435 73.3195 57.9334 70.4013 55.7815C67.4831 53.6295 63.3725 54.2506 61.22 57.1687L60.3964 58.2852C58.2439 61.2033 58.8646 65.3134 61.7828 67.4654C64.701 69.6173 68.8116 68.9963 70.9641 66.0782L71.7877 64.9616Z" fill="#513D31"/>
<path d="M2.77511 67.1951C4.9276 70.1132 9.03819 70.7342 11.9564 68.5823C14.8746 66.4303 15.4953 62.3202 13.3428 59.4021L12.5192 58.2856C10.3667 55.3675 6.25612 54.7464 3.33793 56.8984C0.419737 59.0503 -0.200993 63.1604 1.95149 66.0785L2.77511 67.1951Z" fill="#513D31"/>
<mask id="mask0_441_1119" style="mask-type:luminance" maskUnits="userSpaceOnUse" x="-30" y="-32" width="82" height="98">
<path d="M-3.45338 65.2319C-3.45338 65.2319 -5.91944 34.682 36.3264 41.1983C78.5722 47.7146 16.4222 -32 16.4222 -32L-30 60.7335L-3.45338 65.2333V65.2319Z" fill="white"/>
</mask>
<g mask="url(#mask0_441_1119)">
<path d="M39.6258 87.0001H33.2407C10.9372 87.0001 -6.18906 69.8558 -3.01626 52.2267L0.176957 35.8476C2.7683 21.4481 18.2169 10.7588 36.434 10.7588C54.651 10.7588 70.0996 21.4495 72.691 35.8476L75.8842 52.2267C79.057 69.8558 61.9307 87.0001 39.6272 87.0001H39.6258Z" fill="#7F5B52"/>
</g>
<mask id="mask1_441_1119" style="mask-type:luminance" maskUnits="userSpaceOnUse" x="21" y="-32" width="82" height="98">
<path d="M76.4533 65.2319C76.4533 65.2319 78.9194 34.682 36.6736 41.1983C-5.5709 47.7159 56.5764 -32 56.5764 -32L102.999 60.7335L76.452 65.2333L76.4533 65.2319Z" fill="white"/>
</mask>
<g mask="url(#mask1_441_1119)">
<path d="M33.3727 87.0001H39.7578C62.0613 87.0001 79.1876 69.8558 76.0148 52.2267L72.8216 35.8476C70.2302 21.4481 54.7816 10.7588 36.5646 10.7588C18.3476 10.7588 2.89892 21.4495 0.307574 35.8476L-2.88565 52.2267C-6.05844 69.8558 11.0678 87.0001 33.3714 87.0001H33.3727Z" fill="#7F5B52"/>
</g>
<path d="M41.8522 19.3117L31.5904 8.60198C30.58 7.57811 29.1788 6.94092 27.6264 6.94092C24.5517 6.94092 22.0583 9.43387 22.0583 12.5082V21.0368C22.0583 24.1111 24.5517 26.6041 27.6264 26.6041C30.7012 26.6041 33.1944 24.1111 33.1944 21.0368V19.3104H41.855L41.8522 19.3117Z" fill="#7F5B52"/>
<path d="M50.9349 14.654L40.673 3.94426C39.6626 2.9204 38.2614 2.2832 36.709 2.2832C33.6343 2.2832 31.141 4.77615 31.141 7.85048V16.3791C31.141 19.4534 33.6343 21.9463 36.709 21.9463C39.7838 21.9463 42.2771 19.4534 42.2771 16.3791V14.6527H50.9376L50.9349 14.654Z" fill="#7F5B52"/>
<path d="M48.8651 32.8467C51.0649 32.8467 52.8481 31.9177 52.8481 30.7717C52.8481 29.6258 51.0649 28.6968 48.8651 28.6968C46.6653 28.6968 44.8821 29.6258 44.8821 30.7717C44.8821 31.9177 46.6653 32.8467 48.8651 32.8467Z" fill="#514037"/>
<path d="M24.1255 32.8467C26.3252 32.8467 28.1085 31.9177 28.1085 30.7717C28.1085 29.6258 26.3252 28.6968 24.1255 28.6968C21.9257 28.6968 20.1425 29.6258 20.1425 30.7717C20.1425 31.9177 21.9257 32.8467 24.1255 32.8467Z" fill="#514037"/>
<path d="M43.6524 61.7656C43.6442 61.737 43.6347 61.7084 43.6224 61.6798L39.8055 52.4092C39.5128 51.6999 38.5078 51.6999 38.2151 52.4092L34.3982 61.6798C34.3859 61.7084 34.3764 61.737 34.3682 61.7656C34.1285 62.3497 33.9965 62.9896 33.9965 63.6609C33.9965 66.4288 36.2406 68.6726 39.0089 68.6726C41.7773 68.6726 44.0214 66.4288 44.0214 63.6609C44.0214 62.9896 43.8893 62.3511 43.6497 61.7656H43.6524Z" fill="#81A3E3"/>
<path d="M36.7676 57.4344C35.0654 57.4344 33.5253 56.4282 32.8417 54.8693L28.5292 45.0363C27.2873 42.2044 29.3626 39.0293 32.455 39.0293H41.0801C44.1726 39.0293 46.2478 42.2044 45.0059 45.0363L40.6934 54.8693C40.0098 56.4282 38.4697 57.4344 36.7676 57.4344Z" fill="#FCE199"/>
<g opacity="0.37">
<mask id="mask2_441_1119" style="mask-type:luminance" maskUnits="userSpaceOnUse" x="26" y="47" width="22" height="23">
<path d="M36.9147 69.2199C42.9003 69.2199 47.7525 64.3683 47.7525 58.3835C47.7525 52.3987 42.9003 47.5471 36.9147 47.5471C30.9291 47.5471 26.0768 52.3987 26.0768 58.3835C26.0768 64.3683 30.9291 69.2199 36.9147 69.2199Z" fill="white"/>
</mask>
<g mask="url(#mask2_441_1119)">
<path d="M36.8098 57.4346C35.1076 57.4346 33.5675 56.4285 32.884 54.8695L28.5714 45.0366C27.3295 42.2046 29.4048 39.0295 32.4972 39.0295H41.1223C44.2148 39.0295 46.29 42.2046 45.0482 45.0366L40.7356 54.8695C40.052 56.4285 38.5119 57.4346 36.8098 57.4346Z" fill="#513D31"/>
</g>
</g>
<path d="M54.2315 48.2319C57.903 48.2319 60.8794 45.256 60.8794 41.585C60.8794 37.9139 57.903 34.938 54.2315 34.938C50.56 34.938 47.5836 37.9139 47.5836 41.585C47.5836 45.256 50.56 48.2319 54.2315 48.2319Z" fill="#09131C"/>
<path d="M54.2315 41.5851C56.259 41.5851 57.9027 40.397 57.9027 38.9314C57.9027 37.4659 56.259 36.2778 54.2315 36.2778C52.2039 36.2778 50.5603 37.4659 50.5603 38.9314C50.5603 40.397 52.2039 41.5851 54.2315 41.5851Z" fill="white"/>
<path d="M54.2316 42.6265C51.9153 42.6265 49.8291 43.4325 48.3694 44.7191C49.4901 46.8091 51.6947 48.2305 54.2316 48.2305C56.7684 48.2305 58.9731 46.8091 60.0937 44.7191C58.634 43.4325 56.5478 42.6265 54.2316 42.6265Z" fill="#546186"/>
<path d="M54.2315 46.737C54.9407 46.737 55.5156 46.1622 55.5156 45.4531C55.5156 44.744 54.9407 44.1692 54.2315 44.1692C53.5223 44.1692 52.9474 44.744 52.9474 45.4531C52.9474 46.1622 53.5223 46.737 54.2315 46.737Z" fill="white"/>
<path d="M18.2878 48.2319C21.9593 48.2319 24.9357 45.256 24.9357 41.585C24.9357 37.9139 21.9593 34.938 18.2878 34.938C14.6163 34.938 11.6399 37.9139 11.6399 41.585C11.6399 45.256 14.6163 48.2319 18.2878 48.2319Z" fill="#09131C"/>
<path d="M18.2878 41.5851C20.3153 41.5851 21.9589 40.397 21.9589 38.9314C21.9589 37.4659 20.3153 36.2778 18.2878 36.2778C16.2602 36.2778 14.6166 37.4659 14.6166 38.9314C14.6166 40.397 16.2602 41.5851 18.2878 41.5851Z" fill="white"/>
<path d="M18.2878 42.6265C15.9716 42.6265 13.8854 43.4325 12.4257 44.7191C13.5464 46.8091 15.751 48.2305 18.2878 48.2305C20.8247 48.2305 23.0293 46.8091 24.15 44.7191C22.6903 43.4325 20.6041 42.6265 18.2878 42.6265Z" fill="#546186"/>
<path d="M18.2878 46.737C18.9969 46.737 19.5719 46.1622 19.5719 45.4531C19.5719 44.744 18.9969 44.1692 18.2878 44.1692C17.5786 44.1692 17.0037 44.744 17.0037 45.4531C17.0037 46.1622 17.5786 46.737 18.2878 46.737Z" fill="white"/>
</g>
<defs>
<linearGradient id="paint0_linear_441_1119" x1="9.71439" y1="19.0968" x2="78.0084" y2="98.7839" gradientUnits="userSpaceOnUse">
<stop stop-color="#E7D7C8"/>
<stop offset="1" stop-color="#E7D7C8"/>
</linearGradient>
<clipPath id="clip0_441_1119">
<rect width="96" height="96" fill="white" transform="translate(-12 -4)"/>
</clipPath>
</defs>
</svg>
