<svg width="74" height="65" viewBox="0 0 74 65" fill="none" xmlns="http://www.w3.org/2000/svg">
<g clip-path="url(#clip0_441_1049)">
<path d="M7.5151 28.8794C15.4824 28.8794 21.9411 22.4145 21.9411 14.4397C21.9411 6.46488 15.4824 0 7.5151 0C-0.452152 0 -6.91089 6.46488 -6.91089 14.4397C-6.91089 22.4145 -0.452152 28.8794 7.5151 28.8794Z" fill="#09131C"/>
<path d="M65.5739 28.8794C73.5412 28.8794 79.9999 22.4145 79.9999 14.4397C79.9999 6.46488 73.5412 0 65.5739 0C57.6067 0 51.1479 6.46488 51.1479 14.4397C51.1479 22.4145 57.6067 28.8794 65.5739 28.8794Z" fill="#09131C"/>
<path d="M41.4475 80.9999H31.1901C8.75362 80.9999 -8.84895 64.9325 -6.8441 46.2801L-5.2818 31.7453C-3.51754 15.3137 12.9831 2.72168 32.7509 2.72168H39.8852C59.653 2.72168 76.1536 15.3137 77.9194 31.7468L79.4817 46.2816C81.4865 64.9325 63.884 81.0014 41.4475 81.0014V80.9999Z" fill="#E3E2E3"/>
<path d="M32.7554 41.3346C37.3621 34.8149 36.1664 26.0395 30.0849 21.7342C24.0033 17.4289 15.3387 19.224 10.732 25.7437C6.12533 32.2633 7.32097 41.0387 13.4025 45.344C19.4841 49.6493 28.1487 47.8542 32.7554 41.3346Z" fill="#A4ACBB"/>
<path d="M60.3745 45.3347C66.4561 41.0294 67.6517 32.254 63.045 25.7343C58.4384 19.2146 49.7738 17.4195 43.6922 21.7248C37.6106 26.0301 36.415 34.8055 41.0217 41.3252C45.6284 47.8449 54.2929 49.64 60.3745 45.3347Z" fill="#A4ACBB"/>
<path d="M52.4846 39.5687C56.4888 39.5687 59.7347 36.3196 59.7347 32.3117C59.7347 28.3038 56.4888 25.0547 52.4846 25.0547C48.4805 25.0547 45.2345 28.3038 45.2345 32.3117C45.2345 36.3196 48.4805 39.5687 52.4846 39.5687Z" fill="#09131C"/>
<path d="M52.4846 32.3102C54.6958 32.3102 56.4883 31.0131 56.4883 29.413C56.4883 27.813 54.6958 26.5159 52.4846 26.5159C50.2734 26.5159 48.4808 27.813 48.4808 29.413C48.4808 31.0131 50.2734 32.3102 52.4846 32.3102Z" fill="white"/>
<path d="M52.4847 33.449C49.9586 33.449 47.6834 34.329 46.0914 35.7337C47.3136 38.0155 49.718 39.5673 52.4847 39.5673C55.2514 39.5673 57.6557 38.0155 58.8779 35.7337C57.2859 34.329 55.0108 33.449 52.4847 33.449Z" fill="#546186"/>
<path d="M52.4847 37.9351C53.2581 37.9351 53.8851 37.3075 53.8851 36.5333C53.8851 35.7592 53.2581 35.1316 52.4847 35.1316C51.7112 35.1316 51.0842 35.7592 51.0842 36.5333C51.0842 37.3075 51.7112 37.9351 52.4847 37.9351Z" fill="white"/>
<path d="M20.8585 39.5687C24.8627 39.5687 28.1086 36.3196 28.1086 32.3117C28.1086 28.3038 24.8627 25.0547 20.8585 25.0547C16.8544 25.0547 13.6084 28.3038 13.6084 32.3117C13.6084 36.3196 16.8544 39.5687 20.8585 39.5687Z" fill="#09131C"/>
<path d="M20.8585 32.3102C23.0697 32.3102 24.8622 31.0131 24.8622 29.413C24.8622 27.813 23.0697 26.5159 20.8585 26.5159C18.6473 26.5159 16.8547 27.813 16.8547 29.413C16.8547 31.0131 18.6473 32.3102 20.8585 32.3102Z" fill="white"/>
<path d="M20.8586 33.449C18.3325 33.449 16.0573 34.329 14.4653 35.7337C15.6875 38.0155 18.0919 39.5673 20.8586 39.5673C23.6253 39.5673 26.0296 38.0155 27.2518 35.7337C25.6598 34.329 23.3847 33.449 20.8586 33.449Z" fill="#546186"/>
<path d="M20.8586 37.9351C21.632 37.9351 22.259 37.3075 22.259 36.5333C22.259 35.7592 21.632 35.1316 20.8586 35.1316C20.0851 35.1316 19.4581 35.7592 19.4581 36.5333C19.4581 37.3075 20.0851 37.9351 20.8586 37.9351Z" fill="white"/>
<path d="M36.2141 69.1467C19.5768 69.1467 4.4291 62.7637 -6.91833 52.3123C-5.02932 68.2667 11.1119 80.9999 31.0862 80.9999H41.3435C61.3163 80.9999 77.459 68.2667 79.348 52.3123C67.9991 62.7637 52.8529 69.1467 36.2141 69.1467Z" fill="#09131C"/>
<path d="M45.5448 53.054C45.5359 53.0228 45.5255 52.9916 45.5121 52.9604L41.3495 42.8389C41.0302 42.0644 39.9342 42.0644 39.6149 42.8389L35.4523 52.9604C35.4389 52.9916 35.4285 53.0228 35.4196 53.054C35.1582 53.6917 35.0142 54.3904 35.0142 55.1232C35.0142 58.1452 37.4616 60.595 40.4807 60.595C43.4999 60.595 45.9473 58.1452 45.9473 55.1232C45.9473 54.3904 45.8032 53.6932 45.5418 53.054H45.5448Z" fill="#81A3E3"/>
<path d="M34.9399 45.3988L31.8421 43.0249C29.5877 41.2976 30.8085 37.6914 33.6479 37.6914H39.8436C42.6831 37.6914 43.9038 41.2976 41.6495 43.0249L38.5516 45.3988C37.4868 46.2149 36.0062 46.2149 34.9399 45.3988Z" fill="#09131C"/>
</g>
<defs>
<clipPath id="clip0_441_1049">
<rect width="87" height="81" fill="white" transform="translate(-7)"/>
</clipPath>
</defs>
</svg>
