<svg width="54" height="54" viewBox="0 0 54 54" fill="none" xmlns="http://www.w3.org/2000/svg">
<g clip-path="url(#clip0_442_4109)">
<path d="M11.8414 21.331C16.1456 21.331 19.6348 17.8991 19.6348 13.6655C19.6348 9.43197 16.1456 6 11.8414 6C7.5373 6 4.0481 9.43197 4.0481 13.6655C4.0481 17.8991 7.5373 21.331 11.8414 21.331Z" fill="#09131C"/>
<path d="M43.2067 21.331C47.5108 21.331 51 17.8991 51 13.6655C51 9.43197 47.5108 6 43.2067 6C38.9025 6 35.4133 9.43197 35.4133 13.6655C35.4133 17.8991 38.9025 21.331 43.2067 21.331Z" fill="#09131C"/>
<path d="M30.1728 48.9999H24.6315C12.5106 48.9999 3.0012 40.4703 4.08428 30.5684L4.92828 22.8524C5.88139 14.1295 14.7955 7.44482 25.4747 7.44482H29.3288C40.008 7.44482 48.9221 14.1295 49.876 22.8532L50.72 30.5692C51.8031 40.4703 42.2937 49.0007 30.1728 49.0007V48.9999Z" fill="#E3E2E3"/>
<path d="M25.4771 27.9429C27.9657 24.4819 27.3198 19.8233 24.0344 17.5378C20.7489 15.2523 16.0681 16.2052 13.5794 19.6663C11.0907 23.1274 11.7366 27.7859 15.0221 30.0714C18.3075 32.357 22.9884 31.404 25.4771 27.9429Z" fill="#A4ACBB"/>
<path d="M40.3976 30.0667C43.6831 27.7812 44.329 23.1226 41.8403 19.6616C39.3517 16.2005 34.6708 15.2475 31.3854 17.5331C28.0999 19.8186 27.454 24.4771 29.9427 27.9382C32.4313 31.3993 37.1122 32.3522 40.3976 30.0667Z" fill="#A4ACBB"/>
<path d="M36.1354 27.0055C38.2985 27.0055 40.0521 25.2807 40.0521 23.153C40.0521 21.0254 38.2985 19.3005 36.1354 19.3005C33.9722 19.3005 32.2186 21.0254 32.2186 23.153C32.2186 25.2807 33.9722 27.0055 36.1354 27.0055Z" fill="#09131C"/>
<path d="M36.1354 23.1522C37.3299 23.1522 38.2983 22.4636 38.2983 21.6142C38.2983 20.7648 37.3299 20.0762 36.1354 20.0762C34.9408 20.0762 33.9724 20.7648 33.9724 21.6142C33.9724 22.4636 34.9408 23.1522 36.1354 23.1522Z" fill="white"/>
<path d="M36.1353 23.7566C34.7707 23.7566 33.5416 24.2238 32.6815 24.9695C33.3418 26.1808 34.6407 27.0046 36.1353 27.0046C37.63 27.0046 38.9289 26.1808 39.5892 24.9695C38.7291 24.2238 37.5 23.7566 36.1353 23.7566Z" fill="#546186"/>
<path d="M36.1353 26.1382C36.5532 26.1382 36.8919 25.805 36.8919 25.394C36.8919 24.9831 36.5532 24.6499 36.1353 24.6499C35.7175 24.6499 35.3788 24.9831 35.3788 25.394C35.3788 25.805 35.7175 26.1382 36.1353 26.1382Z" fill="white"/>
<path d="M19.05 27.0055C21.2132 27.0055 22.9668 25.2807 22.9668 23.153C22.9668 21.0254 21.2132 19.3005 19.05 19.3005C16.8869 19.3005 15.1333 21.0254 15.1333 23.153C15.1333 25.2807 16.8869 27.0055 19.05 27.0055Z" fill="#09131C"/>
<path d="M19.05 23.1522C20.2446 23.1522 21.213 22.4636 21.213 21.6142C21.213 20.7648 20.2446 20.0762 19.05 20.0762C17.8555 20.0762 16.8871 20.7648 16.8871 21.6142C16.8871 22.4636 17.8555 23.1522 19.05 23.1522Z" fill="white"/>
<path d="M19.05 23.7566C17.6853 23.7566 16.4562 24.2238 15.5962 24.9695C16.2565 26.1808 17.5554 27.0046 19.05 27.0046C20.5447 27.0046 21.8436 26.1808 22.5038 24.9695C21.6438 24.2238 20.4147 23.7566 19.05 23.7566Z" fill="#546186"/>
<path d="M19.05 26.1382C19.4678 26.1382 19.8066 25.805 19.8066 25.394C19.8066 24.9831 19.4678 24.6499 19.05 24.6499C18.6322 24.6499 18.2935 24.9831 18.2935 25.394C18.2935 25.805 18.6322 26.1382 19.05 26.1382Z" fill="white"/>
<path d="M27.3455 42.7076C18.3576 42.7076 10.1743 39.3191 4.04407 33.7708C5.06457 42.2404 13.7846 49 24.5752 49H30.1166C40.9064 49 49.6272 42.2404 50.6477 33.7708C44.5167 39.3191 36.3343 42.7076 27.3455 42.7076Z" fill="#09131C"/>
<path d="M32.3862 34.1645C32.3814 34.148 32.3758 34.1314 32.3686 34.1148L30.1198 28.7417C29.9473 28.3306 29.3552 28.3306 29.1827 28.7417L26.9339 34.1148C26.9267 34.1314 26.9211 34.148 26.9163 34.1645C26.7751 34.5031 26.6973 34.874 26.6973 35.263C26.6973 36.8673 28.0194 38.1678 29.6505 38.1678C31.2815 38.1678 32.6037 36.8673 32.6037 35.263C32.6037 34.874 32.5258 34.5039 32.3846 34.1645H32.3862Z" fill="#81A3E3"/>
<path d="M26.6572 30.1006L24.9836 28.8404C23.7658 27.9234 24.4252 26.009 25.9592 26.009H29.3063C30.8403 26.009 31.4997 27.9234 30.2819 28.8404L28.6083 30.1006C28.0331 30.5339 27.2332 30.5339 26.6572 30.1006Z" fill="#09131C"/>
</g>
<defs>
<clipPath id="clip0_442_4109">
<rect width="47" height="43" fill="white" transform="translate(4 6)"/>
</clipPath>
</defs>
</svg>
