<svg width="54" height="54" viewBox="0 0 54 54" fill="none" xmlns="http://www.w3.org/2000/svg">
<path d="M37.5652 18.8946C40.8069 18.8946 43.4348 16.3026 43.4348 13.1051C43.4348 9.90771 40.8069 7.31567 37.5652 7.31567C34.3236 7.31567 31.6957 9.90771 31.6957 13.1051C31.6957 16.3026 34.3236 18.8946 37.5652 18.8946Z" fill="#987857"/>
<path d="M28.3281 46.6841H23.3241C12.3795 46.6841 3.79397 38.6036 4.77163 29.223L5.53361 21.9132C6.39485 13.6481 14.443 7.31567 24.0861 7.31567H27.5661C37.2092 7.31567 45.2574 13.6481 46.1186 21.9132L46.8806 29.223C47.8583 38.6036 39.272 46.6841 28.3281 46.6841Z" fill="#DCB384"/>
<path d="M35.9025 29.3157H15.7497C10.9414 29.3157 7.04346 33.2036 7.04346 37.9995V38.0003C7.04346 42.7962 10.9414 46.6841 15.7497 46.6841H35.9025C40.7108 46.6841 44.6087 42.7962 44.6087 38.0003V37.9995C44.6087 33.2036 40.7108 29.3157 35.9025 29.3157Z" fill="#987857"/>
<path d="M39.514 20.4802V20.4387H13.5788V20.4666C7.27941 20.8659 2.29614 25.959 2.29614 32.187C2.29614 38.415 7.70388 43.936 14.3755 43.936C20.5483 43.936 25.6367 39.431 26.3621 33.6173H26.5467C27.2728 39.431 32.3605 43.936 38.5334 43.936C45.2042 43.936 50.6127 38.6761 50.6127 32.187C50.6127 25.6979 45.7265 20.9661 39.514 20.4802Z" fill="#DCB384"/>
<path d="M25.4741 29.3979L16.1439 21.1271C15.8695 20.8838 16.0461 20.4387 16.4183 20.4387H35.0787C35.4502 20.4387 35.6275 20.8838 35.3531 21.1271L26.0229 29.3979C25.8677 29.5352 25.6301 29.5352 25.4749 29.3979H25.4741Z" fill="#DCB384"/>
<path d="M13.5 18.8946C17.0658 18.8946 19.9565 16.3026 19.9565 13.1051C19.9565 9.90771 17.0658 7.31567 13.5 7.31567C9.93414 7.31567 7.04346 9.90771 7.04346 13.1051C7.04346 16.3026 9.93414 18.8946 13.5 18.8946Z" fill="#DCB384"/>
<path d="M32.338 23.6212C34.3215 23.6212 35.9294 22.0572 35.9294 20.128C35.9294 18.1987 34.3215 16.6348 32.338 16.6348C30.3545 16.6348 28.7466 18.1987 28.7466 20.128C28.7466 22.0572 30.3545 23.6212 32.338 23.6212Z" fill="#09131C"/>
<path d="M32.3379 20.128C33.4333 20.128 34.3212 19.5036 34.3212 18.7334C34.3212 17.9632 33.4333 17.3389 32.3379 17.3389C31.2426 17.3389 30.3546 17.9632 30.3546 18.7334C30.3546 19.5036 31.2426 20.128 32.3379 20.128Z" fill="white"/>
<path d="M32.3381 20.6753C31.0868 20.6753 29.9598 21.0989 29.1711 21.7751C29.7766 22.8734 30.9676 23.6204 32.3381 23.6204C33.7086 23.6204 34.8996 22.8734 35.5051 21.7751C34.7164 21.0989 33.5894 20.6753 32.3381 20.6753Z" fill="#546186"/>
<path d="M32.338 22.8356C32.7211 22.8356 33.0317 22.5335 33.0317 22.1608C33.0317 21.7882 32.7211 21.4861 32.338 21.4861C31.9549 21.4861 31.6443 21.7882 31.6443 22.1608C31.6443 22.5335 31.9549 22.8356 32.338 22.8356Z" fill="white"/>
<path d="M21.0863 23.6212C23.0698 23.6212 24.6777 22.0572 24.6777 20.128C24.6777 18.1987 23.0698 16.6348 21.0863 16.6348C19.1028 16.6348 17.4949 18.1987 17.4949 20.128C17.4949 22.0572 19.1028 23.6212 21.0863 23.6212Z" fill="#09131C"/>
<path d="M21.0862 20.128C22.1816 20.128 23.0695 19.5036 23.0695 18.7334C23.0695 17.9632 22.1816 17.3389 21.0862 17.3389C19.9909 17.3389 19.1029 17.9632 19.1029 18.7334C19.1029 19.5036 19.9909 20.128 21.0862 20.128Z" fill="white"/>
<path d="M21.0855 20.6753C19.8342 20.6753 18.7072 21.0989 17.9186 21.7751C18.524 22.8734 19.715 23.6204 21.0855 23.6204C22.456 23.6204 23.6471 22.8734 24.2525 21.7751C23.4639 21.0989 22.3369 20.6753 21.0855 20.6753Z" fill="#546186"/>
<path d="M21.0863 22.8356C21.4694 22.8356 21.78 22.5335 21.78 22.1608C21.78 21.7882 21.4694 21.4861 21.0863 21.4861C20.7032 21.4861 20.3926 21.7882 20.3926 22.1608C20.3926 22.5335 20.7032 22.8356 21.0863 22.8356Z" fill="white"/>
<path d="M30.3489 31.2958C30.345 31.28 30.3406 31.2642 30.3348 31.2485L28.547 26.1355C28.4099 25.7442 27.9392 25.7442 27.802 26.1355L26.0142 31.2485C26.0085 31.2642 26.004 31.28 26.0002 31.2958C25.8879 31.6179 25.826 31.9709 25.826 32.3411C25.826 33.8677 26.8772 35.1052 28.1739 35.1052C29.4706 35.1052 30.5217 33.8677 30.5217 32.3411C30.5217 31.9709 30.4598 31.6187 30.3476 31.2958H30.3489Z" fill="#81A3E3"/>
<path d="M25.5405 26.7445L24.0437 25.7533C22.9544 25.0321 23.5443 23.5264 24.9162 23.5264H27.9099C29.2818 23.5264 29.8717 25.0321 28.7824 25.7533L27.2856 26.7445C26.7711 27.0852 26.0557 27.0852 25.5405 26.7445Z" fill="#B25E54"/>
</svg>
