<svg width="74" height="66" viewBox="0 0 74 66" fill="none" xmlns="http://www.w3.org/2000/svg">
<g clip-path="url(#clip0_441_1221)">
<path d="M58.3605 24.4403C64.2848 24.4403 69.0873 19.6408 69.0873 13.7202C69.0873 7.79959 64.2848 3 58.3605 3C52.4363 3 47.6338 7.79959 47.6338 13.7202C47.6338 19.6408 52.4363 24.4403 58.3605 24.4403Z" fill="#987857"/>
<path d="M41.4166 75H32.637C13.4344 75 -1.6292 60.2218 0.0861415 43.0659L1.42306 29.6971C2.93413 14.5812 17.0549 3 33.9739 3H40.0797C56.9987 3 71.1195 14.5812 72.6305 29.6971L73.9675 43.0659C75.6828 60.2218 60.6179 75 41.4166 75Z" fill="#DCB384"/>
<path d="M55.8098 44.05H19.9684C11.4169 44.05 4.4845 50.9782 4.4845 59.5244V59.5257C4.4845 68.072 11.4169 75.0001 19.9684 75.0001H55.8098C64.3613 75.0001 71.2936 68.072 71.2936 59.5257V59.5244C71.2936 50.9782 64.3613 44.05 55.8098 44.05Z" fill="#987857"/>
<path d="M61.2461 27.0759V27H15.0826V27.051C3.87 27.7812 -5 37.096 -5 48.4862C-5 59.8763 4.62554 69.9736 16.5007 69.9736C27.488 69.9736 36.5452 61.7346 37.8363 51.1021H38.165C39.4574 61.7346 48.5133 69.9736 59.5007 69.9736C71.3745 69.9736 81.0013 60.354 81.0013 48.4862C81.0013 36.6183 72.3042 27.9644 61.2461 27.0759Z" fill="#DCB384"/>
<path d="M36.2558 43.3852L19.6485 28.2589C19.1601 27.814 19.4743 27 20.1369 27H53.3516C54.0128 27 54.3284 27.814 53.84 28.2589L37.2326 43.3852C36.9564 43.6364 36.5334 43.6364 36.2571 43.3852H36.2558Z" fill="#DCB384"/>
<path d="M15.1904 24.4403C21.1146 24.4403 25.9171 19.6408 25.9171 13.7202C25.9171 7.79959 21.1146 3 15.1904 3C9.26616 3 4.46362 7.79959 4.46362 13.7202C4.46362 19.6408 9.26616 24.4403 15.1904 24.4403Z" fill="#DCB384"/>
<path d="M48.4731 32.8208C52.0037 32.8208 54.8657 29.9605 54.8657 26.4321C54.8657 22.9038 52.0037 20.0435 48.4731 20.0435C44.9426 20.0435 42.0806 22.9038 42.0806 26.4321C42.0806 29.9605 44.9426 32.8208 48.4731 32.8208Z" fill="#09131C"/>
<path d="M48.4732 26.432C50.4229 26.432 52.0034 25.2901 52.0034 23.8815C52.0034 22.4729 50.4229 21.3311 48.4732 21.3311C46.5235 21.3311 44.943 22.4729 44.943 23.8815C44.943 25.2901 46.5235 26.432 48.4732 26.432Z" fill="white"/>
<path d="M48.4731 27.4331C46.2458 27.4331 44.2398 28.2078 42.8361 29.4444C43.9137 31.4532 46.0337 32.8194 48.4731 32.8194C50.9126 32.8194 53.0325 31.4532 54.1102 29.4444C52.7065 28.2078 50.7004 27.4331 48.4731 27.4331Z" fill="#546186"/>
<path d="M48.4732 31.3838C49.1551 31.3838 49.708 30.8313 49.708 30.1498C49.708 29.4683 49.1551 28.9158 48.4732 28.9158C47.7912 28.9158 47.2384 29.4683 47.2384 30.1498C47.2384 30.8313 47.7912 31.3838 48.4732 31.3838Z" fill="white"/>
<path d="M28.4456 32.8208C31.9761 32.8208 34.8381 29.9605 34.8381 26.4321C34.8381 22.9038 31.9761 20.0435 28.4456 20.0435C24.915 20.0435 22.053 22.9038 22.053 26.4321C22.053 29.9605 24.915 32.8208 28.4456 32.8208Z" fill="#09131C"/>
<path d="M28.4456 26.432C30.3953 26.432 31.9758 25.2901 31.9758 23.8815C31.9758 22.4729 30.3953 21.3311 28.4456 21.3311C26.4959 21.3311 24.9154 22.4729 24.9154 23.8815C24.9154 25.2901 26.4959 26.432 28.4456 26.432Z" fill="white"/>
<path d="M28.4443 27.4331C26.217 27.4331 24.2109 28.2078 22.8073 29.4444C23.8849 31.4532 26.0048 32.8194 28.4443 32.8194C30.8837 32.8194 33.0037 31.4532 34.0813 29.4444C32.6776 28.2078 30.6716 27.4331 28.4443 27.4331Z" fill="#546186"/>
<path d="M28.4456 31.3838C29.1275 31.3838 29.6804 30.8313 29.6804 30.1498C29.6804 29.4683 29.1275 28.9158 28.4456 28.9158C27.7636 28.9158 27.2108 29.4683 27.2108 30.1498C27.2108 30.8313 27.7636 31.3838 28.4456 31.3838Z" fill="white"/>
<path d="M45.2851 46.5041C45.2772 46.4767 45.2681 46.4492 45.2563 46.4217L41.586 37.5113C41.3045 36.8296 40.3381 36.8296 40.0566 37.5113L36.3863 46.4217C36.3745 46.4492 36.3653 46.4767 36.3575 46.5041C36.127 47.0655 36 47.6806 36 48.3257C36 50.9861 38.1579 53.1427 40.82 53.1427C43.482 53.1427 45.6399 50.9861 45.6399 48.3257C45.6399 47.6806 45.5129 47.0668 45.2825 46.5041H45.2851Z" fill="#81A3E3"/>
<path d="M36.1475 39.208L33.4161 37.1182C31.4284 35.5976 32.5047 32.4229 35.0083 32.4229H40.4712C42.9748 32.4229 44.0512 35.5976 42.0635 37.1182L39.332 39.208C38.3932 39.9265 37.0877 39.9265 36.1475 39.208Z" fill="#B25E54"/>
</g>
<defs>
<clipPath id="clip0_441_1221">
<rect width="86" height="72" fill="white" transform="translate(-6 3)"/>
</clipPath>
</defs>
</svg>
