<svg width="12" height="12" viewBox="0 0 12 12" fill="none" xmlns="http://www.w3.org/2000/svg">
<path d="M9.00005 3H4.1438C4.04434 3 3.94896 2.96049 3.87863 2.89016C3.80831 2.81984 3.7688 2.72446 3.7688 2.625C3.7688 2.52554 3.80831 2.43016 3.87863 2.35984C3.94896 2.28951 4.04434 2.25 4.1438 2.25H9.37505C9.4745 2.25 9.56989 2.28951 9.64021 2.35984C9.71054 2.43016 9.75005 2.52554 9.75005 2.625V7.875C9.75005 7.97446 9.71054 8.06984 9.64021 8.14017C9.56989 8.21049 9.4745 8.25 9.37505 8.25C9.27559 8.25 9.18021 8.21049 9.10988 8.14017C9.03956 8.06984 9.00005 7.97446 9.00005 7.875V3Z" fill="white"/>
<path d="M9.10949 2.35949C9.1799 2.28907 9.2754 2.24951 9.37499 2.24951C9.47457 2.24951 9.57007 2.28907 9.64049 2.35949C9.7109 2.4299 9.75046 2.5254 9.75046 2.62499C9.75046 2.72457 9.7109 2.82007 9.64049 2.89049L3.26549 9.26549C3.23062 9.30035 3.18923 9.32801 3.14367 9.34688C3.09812 9.36575 3.04929 9.37546 2.99999 9.37546C2.95068 9.37546 2.90185 9.36575 2.8563 9.34688C2.81074 9.32801 2.76935 9.30035 2.73449 9.26549C2.69962 9.23062 2.67196 9.18923 2.65309 9.14367C2.63422 9.09812 2.62451 9.04929 2.62451 8.99999C2.62451 8.95068 2.63422 8.90185 2.65309 8.8563C2.67196 8.81074 2.69962 8.76935 2.73449 8.73449L9.10949 2.35949Z" fill="white"/>
</svg>
