<svg width="19" height="20" viewBox="0 0 19 20" fill="none" xmlns="http://www.w3.org/2000/svg">
<path d="M16.8676 8.00182H16.2445V7.96875H9.28257V11.1563H13.6543C13.0165 13.0118 11.3027 14.3438 9.28257 14.3438C6.71943 14.3438 4.6413 12.2029 4.6413 9.5625C4.6413 6.92206 6.71943 4.78125 9.28257 4.78125C10.4657 4.78125 11.5421 5.24105 12.3617 5.9921L14.5496 3.73814C13.1681 2.41174 11.3201 1.59375 9.28257 1.59375C5.01067 1.59375 1.54712 5.16176 1.54712 9.5625C1.54712 13.9632 5.01067 17.5313 9.28257 17.5313C13.5545 17.5313 17.018 13.9632 17.018 9.5625C17.018 9.0282 16.9646 8.50664 16.8676 8.00182Z" fill="#FFC107"/>
<path d="M2.43903 5.85345L4.98051 7.77352C5.66819 6.01959 7.33363 4.78125 9.28258 4.78125C10.4657 4.78125 11.5421 5.24105 12.3617 5.9921L14.5496 3.73814C13.1681 2.41174 11.3201 1.59375 9.28258 1.59375C6.31139 1.59375 3.73471 3.32177 2.43903 5.85345Z" fill="#FF3D00"/>
<path d="M9.28248 17.5312C11.2805 17.5312 13.0961 16.7435 14.4687 15.4625L12.0746 13.3755C11.2719 14.0044 10.291 14.3445 9.28248 14.3437C7.27049 14.3437 5.56212 13.0221 4.91853 11.1777L2.396 13.1799C3.67621 15.7606 6.2761 17.5312 9.28248 17.5312Z" fill="#4CAF50"/>
<path d="M16.8675 8.00182H16.2444V7.96875H9.28253V11.1562H13.6542C13.3491 12.0394 12.7996 12.811 12.0735 13.3759L12.0746 13.3751L14.4688 15.4622C14.2994 15.6207 17.018 13.5469 17.018 9.5625C17.018 9.0282 16.9646 8.50664 16.8675 8.00182Z" fill="#1976D2"/>
</svg>
