<svg width="25" height="24" viewBox="0 0 25 24" fill="none" xmlns="http://www.w3.org/2000/svg">
<path d="M21.2267 6.41008L21.2267 6.41001L15.4669 2.3802C13.7174 1.15444 11.067 1.22024 9.38377 2.52445L9.38239 2.52553L4.3725 6.43544C4.37246 6.43547 4.37243 6.4355 4.37239 6.43553C3.79888 6.8829 3.30837 7.54422 2.96144 8.24883C2.61463 8.95321 2.39001 9.74413 2.39001 10.4697V17.3697C2.39001 20.1944 4.68247 22.4997 7.51001 22.4997H18.29C21.1162 22.4997 23.41 20.2058 23.41 17.3797V10.5997C23.41 9.82543 23.1633 8.99359 22.7808 8.2608C22.3982 7.52802 21.8575 6.85162 21.2267 6.41008ZM13.15 17.9997C13.15 18.1336 13.0339 18.2497 12.9 18.2497C12.7662 18.2497 12.65 18.1336 12.65 17.9997V14.9997C12.65 14.8658 12.7662 14.7497 12.9 14.7497C13.0339 14.7497 13.15 14.8658 13.15 14.9997V17.9997Z" fill="url(#paint0_linear_785_15177)" stroke="url(#paint1_linear_785_15177)"/>
<rect x="12" y="14" width="2" height="5" rx="1" fill="white"/>
<defs>
<linearGradient id="paint0_linear_785_15177" x1="12.9" y1="2.00195" x2="12.9" y2="21.9997" gradientUnits="userSpaceOnUse">
<stop stop-color="#EB6723"/>
<stop offset="1" stop-color="#FF954D"/>
</linearGradient>
<linearGradient id="paint1_linear_785_15177" x1="12.9" y1="2.00195" x2="12.9" y2="21.9997" gradientUnits="userSpaceOnUse">
<stop stop-color="#ED6B27"/>
<stop offset="0.717716" stop-color="#F98740"/>
<stop offset="1" stop-color="#FE924A"/>
</linearGradient>
</defs>
</svg>
