<svg width="138" height="82" viewBox="0 0 138 82" fill="none" xmlns="http://www.w3.org/2000/svg">
<mask id="path-1-outside-1_997_1619" maskUnits="userSpaceOnUse" x="0" y="0" width="138" height="82" fill="black">
<rect fill="white" width="138" height="82"/>
<path fill-rule="evenodd" clip-rule="evenodd" d="M95.6855 21.1195C103.44 13.8717 112.702 5.21503 136.511 1H137V81H1V1H1.48889C24.1316 4.73232 34.3242 13.5818 42.9035 21.0307C50.4148 27.5522 56.6895 33 69 33C82.9742 33 88.7221 27.6278 95.6855 21.1195Z"/>
</mask>
<path fill-rule="evenodd" clip-rule="evenodd" d="M95.6855 21.1195C103.44 13.8717 112.702 5.21503 136.511 1H137V81H1V1H1.48889C24.1316 4.73232 34.3242 13.5818 42.9035 21.0307C50.4148 27.5522 56.6895 33 69 33C82.9742 33 88.7221 27.6278 95.6855 21.1195Z" fill="white"/>
<path d="M136.511 1V0H136.423L136.337 0.0153117L136.511 1ZM95.6855 21.1195L95.0026 20.3889L95.0026 20.3889L95.6855 21.1195ZM137 1H138V0H137V1ZM137 81V82H138V81H137ZM1 81H0V82H1V81ZM1 1V0H0V1H1ZM1.48889 1L1.65153 0.0133146L1.57076 0H1.48889V1ZM42.9035 21.0307L42.2479 21.7858L42.2479 21.7858L42.9035 21.0307ZM136.337 0.0153117C124.335 2.14012 115.954 5.39302 109.58 9.05537C103.209 12.7155 98.8813 16.7637 95.0026 20.3889L96.3683 21.85C100.244 18.2274 104.425 14.3235 110.576 10.7895C116.723 7.25785 124.879 4.07491 136.685 1.98469L136.337 0.0153117ZM136.511 2H137V0H136.511V2ZM136 1V81H138V1H136ZM137 80H1V82H137V80ZM2 81V1H0V81H2ZM1 2H1.48889V0H1V2ZM43.5591 20.2756C34.9237 12.778 24.5617 3.78971 1.65153 0.0133146L1.32625 1.98669C23.7016 5.67492 33.7248 14.3857 42.2479 21.7858L43.5591 20.2756ZM69 32C57.0883 32 51.061 26.7889 43.5591 20.2756L42.2479 21.7858C49.7686 28.3155 56.2907 34 69 34V32ZM95.0026 20.3889C91.5057 23.6573 88.4208 26.533 84.5021 28.6175C80.6122 30.6867 75.8471 32 69 32V34C76.127 34 81.223 32.6272 85.4414 30.3832C89.6311 28.1545 92.9018 25.09 96.3683 21.85L95.0026 20.3889Z" fill="#F1F1F1" mask="url(#path-1-outside-1_997_1619)"/>
<rect x="137" y="1" width="1" height="80" fill="white"/>
<rect y="1" width="1" height="80" fill="white"/>
</svg>
