<svg width="24" height="24" viewBox="0 0 24 24" fill="none" xmlns="http://www.w3.org/2000/svg">
<path d="M14.0748 2.48063L14.0752 2.48091L20.4047 6.91431C20.4048 6.91435 20.4048 6.91438 20.4049 6.91441C20.8881 7.25308 21.3571 7.81796 21.7059 8.48686C22.0547 9.15579 22.25 9.86473 22.25 10.4586V17.9174C22.25 20.3093 20.3103 22.25 17.9231 22.25H6.07692C3.69183 22.25 1.75 20.3004 1.75 17.9064V10.3156C1.75 9.76567 1.92645 9.09286 2.24444 8.44632C2.56223 7.80016 2.98947 7.24516 3.42863 6.90224L3.42879 6.90212L8.93221 2.60224C8.93254 2.60198 8.93287 2.60173 8.9332 2.60147C10.3327 1.51669 12.6193 1.45969 14.0748 2.48063ZM12 20.1746C12.8655 20.1746 13.5742 19.464 13.5742 18.5995V15.2991C13.5742 14.4347 12.8655 13.724 12 13.724C11.1344 13.724 10.4258 14.4347 10.4258 15.2991V18.5995C10.4258 19.464 11.1345 20.1746 12 20.1746Z" stroke="#B0B4BC" stroke-width="1.5"/>
<rect x="7" y="12" width="10" height="9" fill="white"/>
<rect x="10.25" y="13.25" width="3.5" height="6.5" rx="1.75" fill="white" stroke="#B0B4BC" stroke-width="1.5"/>
</svg>
