<svg width="392" height="80" viewBox="0 0 392 80" fill="none" xmlns="http://www.w3.org/2000/svg">
<mask id="path-1-inside-1_785_15167" fill="white">
<path fill-rule="evenodd" clip-rule="evenodd" d="M222.686 20.1195C230.44 12.8717 239.702 4.21503 263.511 0H368C381.255 0 392 10.7452 392 24V56C392 69.2548 381.255 80 368 80H24C10.7452 80 0 69.2548 0 56V24C0 10.7452 10.7452 0 24 0H128.489C151.132 3.73232 161.324 12.5818 169.904 20.0307C177.415 26.5522 183.69 32 196 32C209.974 32 215.722 26.6278 222.686 20.1195Z"/>
</mask>
<path fill-rule="evenodd" clip-rule="evenodd" d="M222.686 20.1195C230.44 12.8717 239.702 4.21503 263.511 0H368C381.255 0 392 10.7452 392 24V56C392 69.2548 381.255 80 368 80H24C10.7452 80 0 69.2548 0 56V24C0 10.7452 10.7452 0 24 0H128.489C151.132 3.73232 161.324 12.5818 169.904 20.0307C177.415 26.5522 183.69 32 196 32C209.974 32 215.722 26.6278 222.686 20.1195Z" fill="white"/>
<path d="M263.511 0V-1H263.423L263.337 -0.984688L263.511 0ZM222.686 20.1195L222.003 19.3889L222.003 19.3889L222.686 20.1195ZM128.489 0L128.652 -0.986685L128.571 -1H128.489V0ZM169.904 20.0307L170.559 19.2756L170.559 19.2755L169.904 20.0307ZM263.337 -0.984688C251.335 1.14012 242.954 4.39302 236.58 8.05537C230.209 11.7155 225.881 15.7637 222.003 19.3889L223.368 20.8501C227.244 17.2274 231.425 13.3235 237.576 9.78954C243.723 6.25785 251.879 3.07491 263.685 0.984688L263.337 -0.984688ZM263.511 1H368V-1H263.511V1ZM368 1C380.703 1 391 11.2975 391 24H393C393 10.1929 381.807 -1 368 -1V1ZM391 24V56H393V24H391ZM391 56C391 68.7025 380.703 79 368 79V81C381.807 81 393 69.8071 393 56H391ZM368 79H24V81H368V79ZM24 79C11.2974 79 1 68.7025 1 56H-1C-1 69.8071 10.1929 81 24 81V79ZM1 56V24H-1V56H1ZM1 24C1 11.2975 11.2975 1 24 1V-1C10.1929 -1 -1 10.1929 -1 24H1ZM24 1H128.489V-1H24V1ZM170.559 19.2755C161.924 11.778 151.562 2.78971 128.652 -0.986685L128.326 0.986685C150.702 4.67492 160.725 13.3857 169.248 20.7858L170.559 19.2755ZM196 31C184.088 31 178.061 25.7889 170.559 19.2756L169.248 20.7858C176.769 27.3155 183.291 33 196 33V31ZM222.003 19.3889C218.506 22.6573 215.421 25.533 211.502 27.6175C207.612 29.6867 202.847 31 196 31V33C203.127 33 208.223 31.6272 212.441 29.3832C216.631 27.1545 219.902 24.09 223.368 20.8501L222.003 19.3889Z" fill="#F1F1F1" mask="url(#path-1-inside-1_785_15167)"/>
</svg>
